<svg width="38" height="30" viewBox="0 0 38 30" fill="none" xmlns="http://www.w3.org/2000/svg">
<path d="M34.2 0H3.8C1.7043 0 0 1.68187 0 3.75V26.25C0 28.3181 1.7043 30 3.8 30H34.2C36.2957 30 38 28.3181 38 26.25V3.75C38 1.68187 36.2957 0 34.2 0ZM19.95 22.5C18.6902 22.5 17.482 22.0061 16.5912 21.1271C15.7004 20.248 15.2 19.0557 15.2 17.8125C15.2 16.5693 15.7004 15.377 16.5912 14.4979C17.482 13.6189 18.6902 13.125 19.95 13.125C20.9811 13.1274 21.9827 13.4647 22.8 14.085C21.6524 14.94 20.9 16.2844 20.9 17.8125C20.9 19.3406 21.6524 20.685 22.8 21.54C21.9827 22.1603 20.9811 22.4976 19.95 22.5ZM27.55 22.5C26.2902 22.5 25.082 22.0061 24.1912 21.1271C23.3004 20.248 22.8 19.0557 22.8 17.8125C22.8 16.5693 23.3004 15.377 24.1912 14.4979C25.082 13.6189 26.2902 13.125 27.55 13.125C28.8098 13.125 30.018 13.6189 30.9088 14.4979C31.7996 15.377 32.3 16.5693 32.3 17.8125C32.3 19.0557 31.7996 20.248 30.9088 21.1271C30.018 22.0061 28.8098 22.5 27.55 22.5Z" fill="#7F3997"/>
</svg>
