<svg width="54" height="48" viewBox="0 0 54 48" fill="none" xmlns="http://www.w3.org/2000/svg">
<path d="M7.68035 6.71811H46.0821C46.5307 6.7179 46.9788 6.74636 47.4238 6.80332C47.273 5.74459 46.9093 4.72738 46.3547 3.81301C45.8001 2.89863 45.0661 2.10603 44.197 1.483C43.3278 0.859961 42.3414 0.419395 41.2974 0.187861C40.2534 -0.0436729 39.1732 -0.0613795 38.1222 0.135808L6.5403 5.52766H6.5043C4.52189 5.90675 2.759 7.02836 1.57567 8.6634C3.35847 7.39533 5.49258 6.71529 7.68035 6.71811Z" fill="#7F3997"/>
<path d="M46.0821 9.59827H7.68036C5.64408 9.60049 3.69184 10.4104 2.25198 11.8502C0.812115 13.2901 0.00222353 15.2423 0 17.2786V40.3197C0.00222353 42.356 0.812115 44.3082 2.25198 45.7481C3.69184 47.1879 5.64408 47.9978 7.68036 48H46.0821C48.1184 47.9978 50.0706 47.1879 51.5105 45.7481C52.9504 44.3082 53.7603 42.356 53.7625 40.3197V17.2786C53.7603 15.2423 52.9504 13.2901 51.5105 11.8502C50.0706 10.4104 48.1184 9.60049 46.0821 9.59827ZM40.3819 32.6393C39.6224 32.6393 38.8799 32.4141 38.2484 31.9921C37.6169 31.5702 37.1247 30.9704 36.834 30.2687C36.5434 29.567 36.4673 28.7949 36.6155 28.05C36.7637 27.3051 37.1294 26.6208 37.6665 26.0837C38.2035 25.5467 38.8878 25.1809 39.6327 25.0328C40.3776 24.8846 41.1497 24.9606 41.8514 25.2513C42.5531 25.5419 43.1529 26.0342 43.5749 26.6657C43.9968 27.2972 44.222 28.0396 44.222 28.7992C44.222 29.8176 43.8175 30.7944 43.0973 31.5146C42.3771 32.2347 41.4003 32.6393 40.3819 32.6393Z" fill="#7F3997"/>
<path d="M0.0599976 25.379V13.4384C0.0599976 10.8379 1.50006 6.47812 6.4983 5.53367C10.7405 4.73804 14.9407 4.73804 14.9407 4.73804C14.9407 4.73804 17.7008 6.65813 15.4207 6.65813C13.1406 6.65813 13.2006 9.59826 15.4207 9.59826C17.6408 9.59826 15.4207 12.4184 15.4207 12.4184L6.48029 22.5589L0.0599976 25.379Z" fill="#7F3997"/>
</svg>
