<svg width="79" height="79" viewBox="0 0 79 79" fill="none" xmlns="http://www.w3.org/2000/svg">
<path d="M54.0039 79H24.9961C11.1711 79 0 67.8289 0 54.0039V24.9961C0 11.1711 11.1711 0 24.9961 0H54.0039C67.8289 0 79 11.1711 79 24.9961V54.0039C79 67.8289 67.8289 79 54.0039 79Z" fill="#7F3997"/>
<path d="M39.5 69.0015C38.9445 68.7547 38.4508 68.5695 38.0187 68.3226C30.7359 64.0023 23.3914 59.6203 16.1086 55.2382C14.4422 54.2507 14.1336 53.2632 15.1211 51.4734C22.5273 38.2039 29.9336 24.9343 37.2781 11.6648C37.7719 10.739 38.3891 10.0601 39.5 10.0601C40.6109 10.0601 41.2281 10.8007 41.7219 11.7265C49.0664 24.9343 56.4727 38.2039 63.8172 51.4117C64.8047 53.2015 64.5578 54.189 62.8297 55.2382L41.1664 68.1992C40.6727 68.5078 40.1172 68.7547 39.5 69.0015ZM36.9078 55.3C35.1797 54.2507 33.5133 53.2632 31.8469 52.2757C30.6125 51.5351 29.4398 50.6711 28.2055 49.9304C27.7117 49.6218 26.9711 49.375 26.4156 49.5601C23.3914 50.4242 20.6141 51.9672 17.775 53.757C24.7492 57.8922 31.4766 61.9656 38.3891 66.1007C38.3891 63.3234 38.4508 60.7929 38.3891 58.2625C38.3273 56.7195 38.9445 55.4851 39.9938 54.4976C40.7344 53.8187 41.5984 53.2015 42.4625 52.7695C44.9313 51.5968 46.9062 49.9921 48.0172 47.2765C48.5109 48.0789 48.943 48.6961 49.375 49.375C48.2023 51.5351 46.4742 53.0781 44.3758 54.189C43.3883 54.6828 42.4625 55.3 41.5984 55.9789C41.1664 56.3492 40.6109 56.9664 40.6109 57.4601C40.4875 60.2375 40.5492 63.0765 40.5492 66.1007C47.4617 61.9656 54.1273 57.9539 61.1016 53.8187C58.3859 52.4609 55.9172 51.1648 53.4484 49.9921C51.6586 49.1281 50.4242 47.8937 49.6836 46.1039C49.1898 44.8695 48.7578 43.5734 48.3875 42.2156C47.4617 38.6359 45.3016 36.2906 41.7219 35.2414C41.3516 35.1179 40.9195 35.0562 40.4875 34.9328C41.9687 32.8343 41.9688 32.8343 44.1289 33.8218C47.4 35.3648 49.6219 37.8953 50.3625 41.4132C51.1031 45.1164 52.7078 47.8937 56.4727 49.1281C57.4602 49.4367 58.3859 50.0539 59.3117 50.5476C59.8672 50.7945 60.3609 51.0414 60.9164 51.2882C60.9781 51.2265 61.0398 51.1648 61.1016 51.0414C54.4359 38.9445 47.7086 26.8476 40.9195 14.7507C40.7961 14.7507 40.6727 14.8125 40.5492 14.8125V16.1703C40.5492 20.4906 40.4258 24.8109 40.6109 29.1312C40.6727 31.6617 39.6852 33.3281 37.6484 34.6242C36.9078 35.1179 36.1672 35.55 35.3648 35.9203C32.8961 37.1547 31.2297 39.1297 30.6742 41.7836C30.3656 43.2648 30.4273 44.8078 30.3656 46.289C28.082 45.6101 28.082 45.6101 28.2672 43.1414C28.6375 38.9445 30.7977 35.9203 34.4391 33.8836C35.4266 33.3281 36.4758 32.8343 37.2781 32.032C37.8336 31.4765 38.3273 30.5507 38.3273 29.7484C38.4508 24.9961 38.3891 20.2437 38.3891 15.4297C38.3891 15.1828 38.3273 14.8742 38.2039 14.3804C31.4148 26.7242 24.7492 38.6976 17.9602 50.9179C20.3055 49.807 22.4039 48.8812 24.5023 47.8937C26.2305 47.0914 27.9586 47.2148 29.5633 48.0789C30.6125 48.6343 31.6617 49.1898 32.5875 49.9921C34.3156 51.5351 36.1672 52.7695 38.6359 53.0781C38.0187 53.8187 37.6484 54.3742 36.9078 55.3Z" fill="white"/>
</svg>
