<svg width="78" height="79" viewBox="0 0 78 79" fill="none" xmlns="http://www.w3.org/2000/svg">
<path d="M53.3203 79H24.6797C11.0297 79 0 67.8289 0 54.0039V24.9961C0 11.1711 11.0297 0 24.6797 0H53.3203C66.9703 0 78 11.1711 78 24.9961V54.0039C78 67.8289 66.9703 79 53.3203 79Z" fill="#7F3997"/>
<path d="M57.4641 44.0672C57.1594 41.8453 56.0625 40.1172 54.1734 39.0063C53.3203 38.5125 52.2844 38.1422 51.3094 37.7102C51.4312 37.6485 51.4922 37.525 51.5531 37.525C56.3672 34.9945 55.9406 27.4649 52.4672 24.8727C51.0656 23.8235 49.4813 23.1445 47.775 22.7742C46.5563 22.5274 45.3984 22.3422 44.1188 22.0953C44.1188 19.9352 44.1797 16.8492 44.1797 14.4422H39.6094C39.6094 16.7875 39.5484 19.8117 39.5484 21.9102H35.9531C35.9531 19.75 35.9531 16.7875 36.0141 14.4422H31.5047C31.5047 16.9109 31.4437 19.8735 31.4437 22.0336C28.3359 22.0336 25.35 21.9719 22.3031 21.9719C22.3031 23.6383 22.3031 25.243 22.2422 26.8477H24.0703C24.6188 26.8477 25.2281 26.8477 25.7766 26.9094C27.3609 27.0328 28.1531 27.8969 28.1531 29.5016L27.9703 49.1899C27.9703 50.6094 27.3609 51.2266 25.9594 51.2266H22.9125C22.6078 53.0781 22.3031 54.868 21.9375 56.7195C24.9844 56.7813 28.0312 56.7813 31.0781 56.843C31.0781 59.1883 31.0781 62.2125 31.0172 64.6813H35.5266C35.5266 62.2125 35.5875 59.3117 35.5875 56.9664C36.8672 57.0281 38.025 57.0281 39.1828 57.0899C39.1828 59.4352 39.1219 62.2742 39.1219 64.6813H43.6312C43.6312 62.2125 43.6922 59.3117 43.6922 57.0281C43.875 57.0281 43.9969 56.9664 44.0578 56.9664C46.1906 56.5961 48.4453 56.411 50.5172 55.9172C53.2594 55.2383 55.4531 53.6336 56.55 50.8563C57.5859 48.6344 57.7688 46.4125 57.4641 44.0672ZM35.9531 27.3414C38.7563 27.3414 41.4984 27.0945 44.1188 28.2672C45.825 29.0078 46.6781 30.4274 46.5563 32.1555C46.4344 33.9453 45.3984 35.2414 43.6312 35.8586C41.1328 36.6609 38.5734 36.661 35.8922 36.5375C35.8922 33.4516 35.9531 30.4891 35.9531 27.3414ZM45.825 50.2391C43.3266 51.35 40.6453 51.35 38.025 51.4117C37.2938 51.4117 36.5625 51.35 35.7094 51.35C35.7703 47.9555 35.7703 44.6227 35.8312 41.2281C39.2437 41.2281 42.6563 40.9813 45.8859 42.4008C47.5313 43.1414 48.5062 44.4375 48.5062 46.3508C48.5062 48.2641 47.5312 49.4985 45.825 50.2391Z" fill="white"/>
</svg>
