<svg width="57" height="48" viewBox="0 0 57 48" fill="none" xmlns="http://www.w3.org/2000/svg">
<path d="M57 12.9167V22.9167C49.0368 25.8333 39.1456 27.5 28.5 27.5C17.8544 27.5 7.96324 25.8333 0 22.9167V12.9167C0 11.0833 1.50882 9.58333 3.35294 9.58333H17.1838V7.08333C17.1838 3.25 20.3691 0 24.3088 0H32.6912C36.6309 0 39.8162 3.25 39.8162 7.08333V9.58333H53.6471C55.4912 9.58333 57 11.0833 57 12.9167ZM21.375 7.08333V9.58333H35.625V7.08333C35.625 5.5 34.2838 4.16667 32.6912 4.16667H24.3088C22.7162 4.16667 21.375 5.5 21.375 7.08333ZM24.3088 22.3333V24C24.3088 24.5 24.6441 24.8333 25.1471 24.8333H31.8529C32.3559 24.8333 32.6912 24.5 32.6912 24V22.3333C32.6912 21.8333 32.3559 21.5 31.8529 21.5H25.1471C24.6441 21.5 24.3088 21.8333 24.3088 22.3333ZM0 44.6667V26.5C8.04706 29.25 17.8544 30.8333 28.5 30.8333C39.1456 30.8333 48.9529 29.25 57 26.5V44.6667C57 46.5 55.4912 48 53.6471 48H3.35294C1.50882 48 0 46.5 0 44.6667ZM32.6912 36.0833V34.4167C32.6912 33.9167 32.3559 33.5833 31.8529 33.5833H25.1471C24.6441 33.5833 24.3088 33.9167 24.3088 34.4167V36.0833C24.3088 36.5833 24.6441 36.9167 25.1471 36.9167H31.8529C32.3559 36.9167 32.6912 36.5833 32.6912 36.0833Z" fill="#7F3997"/>
</svg>
