<svg width="22" height="22" viewBox="0 0 22 22" fill="none" xmlns="http://www.w3.org/2000/svg">
<path d="M11 4.58333C4.00306 4.58333 1.90023 10.6489 1.88098 10.7103L1.78381 11L1.88006 11.2897C1.90023 11.3511 4.00306 17.4167 11 17.4167C17.9969 17.4167 20.0997 11.3511 20.119 11.2897L20.2162 11L20.1199 10.7103C20.0997 10.6489 17.9969 4.58333 11 4.58333ZM11 14.6667C8.97781 14.6667 7.33331 13.0222 7.33331 11C7.33331 8.97783 8.97781 7.33333 11 7.33333C13.0221 7.33333 14.6666 8.97783 14.6666 11C14.6666 13.0222 13.0221 14.6667 11 14.6667Z" fill="#C7C7C7"/>
<path d="M11 9.16667C10.0064 9.16667 9.16669 10.0063 9.16669 11C9.16669 11.9937 10.0064 12.8333 11 12.8333C11.9937 12.8333 12.8334 11.9937 12.8334 11C12.8334 10.0063 11.9937 9.16667 11 9.16667Z" fill="#C7C7C7"/>
</svg>
