<svg width="307" height="306" viewBox="0 0 307 306" fill="none" xmlns="http://www.w3.org/2000/svg">
<path d="M153.603 305.873C69.1381 305.873 0.666097 237.401 0.6661 152.936C0.666104 68.472 69.1381 -1.03771e-05 153.603 -6.68507e-06C238.067 -2.99301e-06 306.539 68.472 306.539 152.936C306.539 237.401 238.067 305.873 153.603 305.873ZM153.603 21.736C81.1426 21.736 22.4021 80.4765 22.4021 152.936C22.4021 225.396 81.1426 284.137 153.603 284.137C226.063 284.137 284.803 225.396 284.803 152.936C284.803 80.4765 226.063 21.736 153.603 21.736Z" fill="url(#paint0_linear)"/>
<path d="M154 260C94.9055 260 47 211.871 47 152.5C47 93.1294 94.9055 45 154 45C213.094 45 261 93.1294 261 152.5C261 211.871 213.094 260 154 260ZM154 51.7597C98.6215 51.7597 53.7283 96.8627 53.7283 152.5C53.7283 208.137 98.6215 253.24 154 253.24C209.379 253.24 254.272 208.137 254.272 152.5C254.272 96.8627 209.379 51.7597 154 51.7597Z" fill="url(#paint1_linear)"/>
<defs>
<linearGradient id="paint0_linear" x1="153.603" y1="-6.68507e-06" x2="153.603" y2="305.873" gradientUnits="userSpaceOnUse">
<stop stop-color="#D5DEE7"/>
<stop offset="0.5" stop-color="#E8EBF2"/>
<stop offset="1" stop-color="#E2E7ED"/>
</linearGradient>
<linearGradient id="paint1_linear" x1="154" y1="45" x2="154" y2="260" gradientUnits="userSpaceOnUse">
<stop stop-color="#A8BFFF"/>
<stop offset="1" stop-color="#884D80"/>
</linearGradient>
</defs>
</svg>
