<svg width="689" height="477" viewBox="0 0 689 477" fill="none" xmlns="http://www.w3.org/2000/svg">
<g clip-path="url(#clip0)">
<path d="M62.863 208.823C50.1258 219.249 70.9684 310.766 70.9684 310.766C70.9684 310.766 75.6001 450.358 85.4425 456.73C95.2849 463.101 117.285 456.15 125.97 454.992C134.654 453.834 127.128 367.53 114.391 335.673C101.653 303.816 111.496 257.478 111.496 257.478L180.392 270.8C180.392 270.8 138.707 306.132 140.444 313.662C142.181 321.192 186.761 346.678 194.866 347.836C202.972 348.995 218.604 301.499 232.499 269.062C246.394 236.626 137.549 215.774 137.549 215.774L122.496 187.392C122.496 187.392 75.6002 198.397 62.863 208.823Z" fill="#2F2E41"/>
<path d="M97.4415 459.133C97.4415 459.133 93.2402 473.844 97.4415 473.844C101.643 473.844 109.345 478.047 121.249 476.646C133.152 475.245 129.651 460.534 121.249 458.433C112.846 456.331 114.947 439.519 114.947 439.519C112.146 433.914 98.8418 440.92 98.8418 440.92L97.4415 459.133Z" fill="#2F2E41"/>
<path d="M157.088 342.15C157.088 342.15 149.88 355.644 153.987 356.531C158.093 357.417 164.736 363.151 176.668 364.292C188.599 365.434 188.278 350.315 180.507 346.488C172.736 342.661 178.334 326.67 178.334 326.67C176.777 320.601 162.296 324.642 162.296 324.642L157.088 342.15Z" fill="#2F2E41"/>
<path d="M70.6787 83.4222C71.8366 85.739 66.626 114.7 66.626 114.7L71.2577 122.809C71.2577 122.809 97.89 112.383 93.8372 110.646C89.7845 108.908 90.3635 87.4767 90.3635 87.4767C90.3635 87.4767 69.5208 81.1053 70.6787 83.4222Z" fill="#FFB9B9"/>
<path d="M80.703 92.3493C100.308 92.3493 116.201 76.4491 116.201 56.8351C116.201 37.2212 100.308 21.3209 80.703 21.3209C61.0978 21.3209 45.2046 37.2212 45.2046 56.8351C45.2046 76.4491 61.0978 92.3493 80.703 92.3493Z" fill="#2F2E41"/>
<path d="M78.2549 38.2835C86.3674 38.2835 92.9439 31.7041 92.9439 23.588C92.9439 15.4719 86.3674 8.89246 78.2549 8.89246C70.1424 8.89246 63.5659 15.4719 63.5659 23.588C63.5659 31.7041 70.1424 38.2835 78.2549 38.2835Z" fill="#2F2E41"/>
<path d="M84.6812 30.244C85.1895 30.2968 85.7002 30.3233 86.2113 30.3235C88.1403 30.3235 90.0504 29.9434 91.8325 29.2048C93.6147 28.4663 95.234 27.3839 96.598 26.0192C97.962 24.6546 99.044 23.0346 99.7822 21.2517C100.52 19.4687 100.9 17.5578 100.9 15.6279C100.9 13.6981 100.52 11.7871 99.7822 10.0042C99.044 8.22123 97.962 6.60121 96.598 5.2366C95.234 3.87199 93.6147 2.78953 91.8325 2.051C90.0504 1.31248 88.1403 0.932373 86.2113 0.932373C85.7002 0.932505 85.1895 0.959023 84.6812 1.01183C88.2923 1.39034 91.6353 3.09344 94.0653 5.79253C96.4953 8.49161 97.84 11.9954 97.84 15.6279C97.84 19.2604 96.4953 22.7642 94.0653 25.4633C91.6353 28.1624 88.2923 29.8655 84.6812 30.244Z" fill="#2F2E41"/>
<path d="M81.6792 98.4819C95.1088 98.4819 105.996 87.5902 105.996 74.1546C105.996 60.7191 95.1088 49.8274 81.6792 49.8274C68.2496 49.8274 57.3628 60.7191 57.3628 74.1546C57.3628 87.5902 68.2496 98.4819 81.6792 98.4819Z" fill="#FFB9B9"/>
<path d="M46.6519 111.514C39.1254 113.252 26.3882 131.787 26.3882 131.787L46.6519 152.06C46.6519 152.06 61.126 206.507 62.8629 208.823C74.2418 224.002 125.391 190.288 125.391 190.288C125.391 190.288 123.364 173.781 124.522 165.672C125.636 157.872 120.18 142.213 120.18 142.213C120.18 142.213 139.286 134.104 135.233 125.995C131.181 117.886 106.285 99.3508 95.8638 105.722C85.4425 112.094 64.5998 105.722 64.5998 105.722C64.5998 105.722 54.1784 109.777 46.6519 111.514Z" fill="#E6E6E6"/>
<path d="M194.577 228.227C194.577 228.227 227.578 256.609 235.684 250.817C243.789 245.025 204.42 224.752 204.42 224.752L194.577 228.227Z" fill="#FFB9B9"/>
<path d="M46.3626 218.381C50.9944 223.594 72.995 210.271 70.1744 204.355C67.3538 198.439 49.8364 210.271 49.8364 210.271C49.8364 210.271 41.7309 213.168 46.3626 218.381Z" fill="#FFB9B9"/>
<path d="M46.652 139.896L22.3355 185.075C22.3355 185.075 50.1257 208.244 53.5995 208.823C57.0732 209.403 46.6519 224.462 46.6519 224.462C46.6519 224.462 15.3879 202.452 3.22972 191.447C-8.92849 180.442 26.3883 131.787 26.3883 131.787L36.8096 125.416L46.652 139.896Z" fill="#E6E6E6"/>
<path d="M117.286 138.159L145.655 182.179C145.655 182.179 189.077 230.834 194.867 233.151C200.656 235.468 207.604 224.462 207.604 224.462L155.497 161.327L135.812 125.995L128.286 123.099L117.286 138.159Z" fill="#E6E6E6"/>
<path d="M80.7029 59.9461C94.2237 59.9461 105.185 53.3667 105.185 45.2506C105.185 37.1345 94.2237 30.5551 80.7029 30.5551C67.182 30.5551 56.2212 37.1345 56.2212 45.2506C56.2212 53.3667 67.182 59.9461 80.7029 59.9461Z" fill="#2F2E41"/>
<path d="M149.382 362.323C148.58 362.324 147.811 362.644 147.243 363.211C146.676 363.779 146.357 364.548 146.356 365.351V468.619C146.357 469.422 146.676 470.191 147.243 470.759C147.811 471.327 148.58 471.646 149.382 471.647H501.352C502.154 471.646 502.923 471.327 503.491 470.759C504.058 470.191 504.377 469.422 504.378 468.619V365.351C504.377 364.548 504.058 363.779 503.491 363.211C502.923 362.643 502.154 362.324 501.352 362.323L149.382 362.323Z" fill="#E6E6E6"/>
<path d="M153.94 464.059H496.794V369.911H153.94V464.059Z" fill="white"/>
<path d="M453.517 444.528C452.858 444.527 452.206 444.656 451.597 444.908C450.988 445.16 450.435 445.529 449.968 445.995C449.502 446.461 449.133 447.014 448.88 447.623C448.628 448.231 448.498 448.884 448.498 449.543C448.498 450.202 448.628 450.855 448.88 451.464C449.133 452.073 449.502 452.626 449.968 453.092C450.435 453.558 450.988 453.927 451.597 454.179C452.206 454.43 452.858 454.559 453.517 454.559H473.57C474.899 454.559 476.175 454.03 477.115 453.09C478.055 452.149 478.583 450.873 478.583 449.543C478.583 448.213 478.055 446.937 477.115 445.997C476.175 445.056 474.899 444.528 473.57 444.528H453.517Z" fill="#7F3997"/>
<path d="M478.583 434.799H247.099V436.119H478.583V434.799Z" fill="#E6E6E6"/>
<path d="M198.712 446.197C214.838 446.197 227.911 433.118 227.911 416.985C227.911 400.852 214.838 387.773 198.712 387.773C182.586 387.773 169.513 400.852 169.513 416.985C169.513 433.118 182.586 446.197 198.712 446.197Z" fill="#7F3997"/>
<path d="M247.465 427.431L246.733 426.333L270.788 410.289L287.283 418.211L311.009 403.046L358.205 423.187L395.79 404.716L432.287 419.519L478.146 378.883L479.02 379.871L432.549 421.05L395.842 406.161L358.243 424.639L311.132 404.533L287.374 419.719L270.894 411.805L247.465 427.431Z" fill="#3F3D56"/>
<path d="M251.386 445.218C250.823 445.217 250.265 445.327 249.744 445.543C249.223 445.758 248.75 446.074 248.351 446.472C247.953 446.87 247.636 447.343 247.421 447.864C247.205 448.385 247.094 448.943 247.094 449.506C247.094 450.07 247.205 450.628 247.421 451.149C247.636 451.67 247.953 452.143 248.351 452.541C248.75 452.939 249.223 453.255 249.744 453.47C250.265 453.685 250.823 453.796 251.386 453.795H296.232C297.368 453.794 298.457 453.341 299.26 452.537C300.062 451.733 300.513 450.643 300.513 449.506C300.513 448.37 300.062 447.28 299.26 446.476C298.457 445.672 297.368 445.219 296.232 445.218H251.386Z" fill="#E6E6E6"/>
<path d="M209.864 403.917H214.426L204.933 413.316C203.274 414.951 201.039 415.868 198.711 415.868C196.382 415.868 194.147 414.951 192.488 413.316L182.996 403.917H187.559L194.77 411.057C195.821 412.093 197.236 412.673 198.711 412.673C200.186 412.673 201.602 412.093 202.652 411.057L209.864 403.917ZM187.5 430.054H182.938L192.49 420.596C194.148 418.961 196.383 418.044 198.712 418.044C201.04 418.044 203.276 418.961 204.934 420.596L214.486 430.054H209.923L202.652 422.855C201.602 421.819 200.186 421.239 198.711 421.239C197.236 421.239 195.821 421.819 194.77 422.855L187.5 430.054Z" fill="white"/>
<path d="M195.215 31.5462C194.413 31.5471 193.643 31.8664 193.076 32.434C192.509 33.0016 192.189 33.7712 192.188 34.5739V137.842C192.189 138.645 192.509 139.414 193.076 139.982C193.643 140.55 194.413 140.869 195.215 140.87H547.184C547.987 140.869 548.756 140.55 549.323 139.982C549.891 139.414 550.21 138.645 550.211 137.842V34.5739C550.21 33.7712 549.891 33.0016 549.323 32.434C548.756 31.8664 547.987 31.5471 547.184 31.5461L195.215 31.5462Z" fill="#E6E6E6"/>
<path d="M199.772 133.282H542.626V39.1338H199.772V133.282Z" fill="white"/>
<path d="M499.35 113.751C498.02 113.751 496.745 114.279 495.805 115.22C494.865 116.16 494.336 117.436 494.336 118.766C494.336 120.096 494.865 121.372 495.805 122.313C496.745 123.253 498.02 123.782 499.35 123.782H519.402C520.732 123.782 522.007 123.253 522.947 122.313C523.887 121.372 524.415 120.096 524.415 118.766C524.415 117.436 523.887 116.16 522.947 115.22C522.007 114.279 520.732 113.751 519.402 113.751H499.35Z" fill="#7F3997"/>
<path d="M524.416 104.022H292.932V105.342H524.416V104.022Z" fill="#E6E6E6"/>
<path d="M244.544 115.42C260.671 115.42 273.743 102.341 273.743 86.2081C273.743 70.0747 260.671 56.996 244.544 56.996C228.418 56.996 215.345 70.0747 215.345 86.2081C215.345 102.341 228.418 115.42 244.544 115.42Z" fill="#7F3997"/>
<path d="M293.297 96.6535L292.566 95.5554L316.62 79.5121L333.115 87.4335L356.841 72.2686L357.162 72.4049L404.038 92.4103L441.623 73.9393L478.119 88.7419L523.978 48.1055L524.853 49.0933L478.382 90.2721L441.674 75.384L404.077 93.8614L356.965 73.7557L333.207 88.9411L316.727 81.0268L293.297 96.6535Z" fill="#3F3D56"/>
<path d="M297.218 114.441C296.082 114.442 294.993 114.895 294.191 115.699C293.388 116.503 292.937 117.593 292.937 118.729C292.937 119.866 293.388 120.956 294.191 121.76C294.993 122.564 296.082 123.017 297.218 123.018H342.064C343.201 123.018 344.291 122.566 345.095 121.762C345.899 120.958 346.351 119.867 346.351 118.729C346.351 117.592 345.899 116.501 345.095 115.697C344.291 114.893 343.201 114.441 342.064 114.441H297.218Z" fill="#E6E6E6"/>
<path d="M256.293 82.7984C256.838 79.1428 254.056 77.1777 250.252 75.8667L251.486 70.9148L248.472 70.1636L247.271 74.985C246.48 74.7876 245.666 74.6012 244.858 74.4167L246.068 69.5635L243.057 68.8123L241.822 73.7625C241.166 73.6131 240.523 73.4654 239.898 73.31L239.901 73.2946L235.746 72.2566L234.945 75.4761C234.945 75.4761 237.18 75.9886 237.133 76.0204C237.55 76.0703 237.931 76.282 238.193 76.6098C238.456 76.9377 238.579 77.3555 238.537 77.7735L237.131 83.4148C237.238 83.4413 237.342 83.4749 237.444 83.5152L237.127 83.4362L235.156 91.3389C235.112 91.4768 235.042 91.6048 234.949 91.7156C234.856 91.8263 234.743 91.9176 234.614 91.9841C234.486 92.0506 234.346 92.0911 234.202 92.1033C234.058 92.1155 233.913 92.099 233.775 92.0549C233.805 92.0987 231.585 91.508 231.585 91.508L230.089 94.9593L234.011 95.9371C234.74 96.12 235.455 96.3114 236.158 96.4917L234.911 101.501L237.921 102.252L239.156 97.297C239.978 97.5202 240.776 97.7263 241.557 97.9203L240.326 102.852L243.339 103.604L244.586 98.6045C249.724 99.5772 253.588 99.1849 255.212 94.5369C256.523 90.7937 255.148 88.6346 252.445 87.2257C254.413 86.7699 255.896 85.4744 256.292 82.7984L256.293 82.7984ZM249.408 92.4558C248.476 96.199 242.177 94.1763 240.134 93.6681L241.788 87.0326C243.831 87.5425 250.379 88.5522 249.409 92.4558H249.408ZM250.339 82.7443C249.489 86.1492 244.246 84.4192 242.544 83.9952L244.044 77.9769C245.746 78.401 251.224 79.1926 250.339 82.7443Z" fill="white"/>
<path d="M333.687 196.935C332.884 196.936 332.115 197.255 331.548 197.823C330.98 198.39 330.661 199.16 330.66 199.963V303.231C330.661 304.033 330.98 304.803 331.548 305.371C332.115 305.938 332.884 306.257 333.687 306.258H685.656C686.459 306.257 687.228 305.938 687.795 305.371C688.362 304.803 688.682 304.033 688.682 303.231V199.963C688.682 199.16 688.362 198.39 687.795 197.823C687.228 197.255 686.459 196.936 685.656 196.935L333.687 196.935Z" fill="#E6E6E6"/>
<path d="M338.245 298.671H681.098V204.522H338.245V298.671Z" fill="white"/>
<path d="M637.822 279.139C636.492 279.139 635.217 279.668 634.277 280.608C633.337 281.549 632.809 282.825 632.809 284.155C632.809 285.485 633.337 286.761 634.277 287.701C635.217 288.642 636.492 289.17 637.822 289.17H657.874C659.204 289.17 660.479 288.642 661.419 287.701C662.359 286.761 662.888 285.485 662.888 284.155C662.888 282.825 662.359 281.549 661.419 280.608C660.479 279.668 659.204 279.139 657.874 279.139H637.822Z" fill="#7F3997"/>
<path d="M662.888 269.411H431.404V270.73H662.888V269.411Z" fill="#E6E6E6"/>
<path d="M383.016 280.809C399.143 280.809 412.216 267.73 412.216 251.597C412.216 235.463 399.143 222.385 383.016 222.385C366.89 222.385 353.817 235.463 353.817 251.597C353.817 267.73 366.89 280.809 383.016 280.809Z" fill="#7F3997"/>
<path d="M431.77 262.042L431.038 260.944L455.092 244.901L471.588 252.822L495.313 237.658L495.634 237.794L542.51 257.799L580.095 239.328L616.592 254.13L662.451 213.494L663.325 214.483L616.854 255.661L580.147 240.773L542.548 259.25L495.437 239.145L471.679 254.33L455.199 246.416L431.77 262.042Z" fill="#3F3D56"/>
<path d="M435.691 279.829C434.554 279.829 433.463 280.281 432.659 281.085C431.855 281.89 431.404 282.98 431.404 284.118C431.404 285.255 431.855 286.346 432.659 287.15C433.463 287.955 434.554 288.406 435.691 288.406H480.536C481.673 288.406 482.764 287.955 483.568 287.15C484.372 286.346 484.823 285.255 484.823 284.118C484.823 282.98 484.372 281.89 483.568 281.085C482.764 280.281 481.673 279.829 480.536 279.829H435.691Z" fill="#E6E6E6"/>
<path d="M383.013 270.849L394.833 254.195L383.013 261.177L371.2 254.195L383.012 270.849H383.013Z" fill="white"/>
<path d="M383.012 258.94H383.013L394.826 251.954L383.013 232.344H383.012L371.2 251.954L383.012 258.94Z" fill="white"/>
</g>
<defs>
<clipPath id="clip0">
<rect width="688" height="476" fill="white" transform="translate(0.682617 0.932373)"/>
</clipPath>
</defs>
</svg>
