<svg width="38" height="38" viewBox="0 0 38 38" fill="none" xmlns="http://www.w3.org/2000/svg">
<path d="M2.11111 21.1111H14.7778C15.3377 21.1111 15.8746 20.8887 16.2706 20.4928C16.6665 20.0969 16.8889 19.5599 16.8889 19V2.11111C16.8889 1.55121 16.6665 1.01424 16.2706 0.61833C15.8746 0.22242 15.3377 0 14.7778 0H2.11111C1.55121 0 1.01424 0.22242 0.61833 0.61833C0.22242 1.01424 0 1.55121 0 2.11111V19C0 19.5599 0.22242 20.0969 0.61833 20.4928C1.01424 20.8887 1.55121 21.1111 2.11111 21.1111ZM0 35.8889C0 36.4488 0.22242 36.9858 0.61833 37.3817C1.01424 37.7776 1.55121 38 2.11111 38H14.7778C15.3377 38 15.8746 37.7776 16.2706 37.3817C16.6665 36.9858 16.8889 36.4488 16.8889 35.8889V27.4444C16.8889 26.8845 16.6665 26.3476 16.2706 25.9517C15.8746 25.5558 15.3377 25.3333 14.7778 25.3333H2.11111C1.55121 25.3333 1.01424 25.5558 0.61833 25.9517C0.22242 26.3476 0 26.8845 0 27.4444V35.8889ZM21.1111 35.8889C21.1111 36.4488 21.3335 36.9858 21.7294 37.3817C22.1254 37.7776 22.6623 38 23.2222 38H35.8889C36.4488 38 36.9858 37.7776 37.3817 37.3817C37.7776 36.9858 38 36.4488 38 35.8889V21.1111C38 20.5512 37.7776 20.0142 37.3817 19.6183C36.9858 19.2224 36.4488 19 35.8889 19H23.2222C22.6623 19 22.1254 19.2224 21.7294 19.6183C21.3335 20.0142 21.1111 20.5512 21.1111 21.1111V35.8889ZM23.2222 14.7778H35.8889C36.4488 14.7778 36.9858 14.5554 37.3817 14.1594C37.7776 13.7635 38 13.2266 38 12.6667V2.11111C38 1.55121 37.7776 1.01424 37.3817 0.61833C36.9858 0.22242 36.4488 0 35.8889 0H23.2222C22.6623 0 22.1254 0.22242 21.7294 0.61833C21.3335 1.01424 21.1111 1.55121 21.1111 2.11111V12.6667C21.1111 13.2266 21.3335 13.7635 21.7294 14.1594C22.1254 14.5554 22.6623 14.7778 23.2222 14.7778Z" fill="#7F3997"/>
</svg>
