<svg width="79" height="79" viewBox="0 0 79 79" fill="none" xmlns="http://www.w3.org/2000/svg">
<path d="M54.0039 79H24.9961C11.1711 79 0 67.8289 0 54.0039V24.9961C0 11.1711 11.1711 0 24.9961 0H54.0039C67.8289 0 79 11.1711 79 24.9961V54.0039C79 67.8289 67.8289 79 54.0039 79Z" fill="#7F3997"/>
<path d="M61.5336 57.8921V57.8304L54.7445 26.8476C54.6828 26.6625 54.6211 26.4773 54.4977 26.3539L40.4875 7.22105C40.2406 6.91245 39.8703 6.72729 39.5 6.72729C39.1297 6.72729 38.7594 6.91245 38.5125 7.22105L24.5023 26.3539C24.4406 26.4156 24.4406 26.4773 24.3789 26.539C24.3172 26.6625 24.3172 26.7242 24.2555 26.8476L17.4664 57.8304V58.3859C17.4664 58.4476 17.5281 58.571 17.5281 58.6328C17.6516 58.8179 17.775 59.0031 17.9602 59.1265L38.7594 72.1492C38.9445 72.2726 39.1914 72.3343 39.4383 72.3343C39.6852 72.3343 39.8703 72.2726 40.1172 72.1492L60.9164 59.1265C61.1015 59.0031 61.2867 58.8179 61.3484 58.6328C61.4101 58.571 61.4101 58.5093 61.4101 58.3859C61.5953 58.2625 61.5953 58.0773 61.5336 57.8921ZM57.3984 50.3625L50.9797 39.1296L53.325 31.8468L57.3984 50.3625ZM40.7344 11.6648L52.1523 27.2796L49.375 36.1671L40.7344 20.9843V11.6648ZM39.5 23.8234L48.3258 39.3765L42.7711 56.8429H36.2289L30.6742 39.3765L39.5 23.8234ZM38.2656 11.6648V20.9843L29.625 36.1671L26.7859 27.2796L38.2656 11.6648ZM25.675 31.7851L28.0203 39.0679L21.6016 50.3625L25.675 31.7851ZM29.0078 42.2773L33.6367 56.7812H20.7992L29.0078 42.2773ZM22.9594 59.3117H34.4391L37.2781 68.3226L22.9594 59.3117ZM39.5 67.0882L37.0312 59.3117H41.9687L39.5 67.0882ZM41.7219 68.3226L44.5609 59.3117H56.0406L41.7219 68.3226ZM45.3633 56.8429L49.9922 42.2773L58.2008 56.7812H45.3633V56.8429Z" fill="white"/>
</svg>
