<svg width="79" height="78" viewBox="0 0 79 78" fill="none" xmlns="http://www.w3.org/2000/svg">
<path d="M54.0039 78H24.9961C11.1711 78 0 66.9703 0 53.3203V24.6797C0 11.0297 11.1711 0 24.9961 0H54.0039C67.8289 0 79 11.0297 79 24.6797V53.3203C79 66.9703 67.8289 78 54.0039 78Z" fill="#7F3997"/>
<path d="M40.2406 53.1375V66.9703L57.6453 42.9L40.2406 53.1375Z" fill="white"/>
<path d="M56.9664 38.4516L40.2406 11.0297V30.9563L56.9664 38.4516Z" fill="white"/>
<path d="M40.2406 32.4797V49.5422L56.843 39.975L40.2406 32.4797Z" fill="white"/>
<path d="M22.0953 38.4516L38.8211 11.0297V30.9563L22.0953 38.4516Z" fill="white"/>
<path d="M38.8211 32.4797V49.5422L22.2188 39.975L38.8211 32.4797Z" fill="white"/>
<path d="M38.7594 53.1375V66.9703L21.4164 42.9L38.7594 53.1375Z" fill="white"/>
</svg>
