<svg width="38" height="37" viewBox="0 0 38 37" fill="none" xmlns="http://www.w3.org/2000/svg">
<path d="M23.5862 0H2.62069C1.92564 0 1.25906 0.276107 0.767582 0.767582C0.276107 1.25906 0 1.92564 0 2.62069V34.069C0 34.764 0.276107 35.4306 0.767582 35.9221C1.25906 36.4135 1.92564 36.6897 2.62069 36.6897H23.5862C24.2813 36.6897 24.9478 36.4135 25.4393 35.9221C25.9308 35.4306 26.2069 34.764 26.2069 34.069V26.2069H13.929C13.5814 26.2069 13.2481 26.0688 13.0024 25.8231C12.7567 25.5774 12.6186 25.2441 12.6186 24.8965C12.6186 24.549 12.7567 24.2157 13.0024 23.97C13.2481 23.7243 13.5814 23.5862 13.929 23.5862H26.2069V2.62069C26.2069 1.92564 25.9308 1.25906 25.4393 0.767582C24.9478 0.276107 24.2813 0 23.5862 0Z" fill="#7F3997"/>
<path d="M30.3476 17.4013C30.0969 17.1866 29.7745 17.0744 29.4447 17.0872C29.1149 17.0999 28.8021 17.2366 28.5687 17.47C28.3354 17.7033 28.1986 18.0162 28.1859 18.346C28.1732 18.6757 28.2853 18.9982 28.5 19.2488L32.929 23.5861H26.2069V26.2068H32.929L28.5 30.7406C28.3628 30.858 28.2514 31.0026 28.1728 31.1652C28.0941 31.3277 28.0499 31.5048 28.043 31.6853C28.036 31.8657 28.0664 32.0457 28.1323 32.2138C28.1982 32.382 28.2981 32.5347 28.4258 32.6624C28.5535 32.7901 28.7062 32.89 28.8743 32.9559C29.0425 33.0218 29.2224 33.0522 29.4029 33.0452C29.5834 33.0382 29.7604 32.994 29.923 32.9154C30.0856 32.8367 30.2301 32.7253 30.3476 32.5882L38 24.9882L30.3476 17.4013Z" fill="#7F3997"/>
</svg>
