<svg width="43" height="48" viewBox="0 0 43 48" fill="none" xmlns="http://www.w3.org/2000/svg">
<path fill-rule="evenodd" clip-rule="evenodd" d="M12.5051 1.68C15.8402 0.7968 19.38 0 21.5001 0C23.617 0 27.16 0.7968 30.4951 1.68C33.4699 2.47928 36.4254 3.34886 39.3591 4.288C41.0474 4.8256 42.3201 6.2816 42.5663 8.0768C44.3986 21.5072 40.1489 31.4592 34.9975 38.0448C32.8022 40.8711 30.1959 43.352 27.2655 45.4048C26.2465 46.1191 25.1694 46.7463 24.0454 47.28C23.1821 47.6768 22.2611 48 21.5001 48C20.7391 48 19.8181 47.6768 18.9548 47.28C17.8306 46.7468 16.7534 46.1195 15.7347 45.4048C12.8054 43.3517 10.2003 40.8708 8.00594 38.0448C2.8481 31.4592 -1.39841 21.5072 0.433857 8.0768C0.556362 7.20663 0.922611 6.38896 1.49021 5.71845C2.05781 5.04793 2.80355 4.55198 3.64112 4.288C6.57481 3.34888 9.53028 2.4793 12.5051 1.68ZM23.1469 23.7088C24.2012 23.3227 25.0868 22.5788 25.6494 21.6065C26.2121 20.6343 26.4161 19.4953 26.2259 18.3881C26.0357 17.2808 25.4635 16.2754 24.6088 15.5469C23.7541 14.8184 22.6711 14.413 21.5485 14.4013C20.4258 14.3897 19.3347 14.7725 18.4651 15.4831C17.5954 16.1936 17.0025 17.187 16.7894 18.2901C16.5763 19.3932 16.7566 20.5361 17.299 21.5198C17.8413 22.5035 18.7113 23.2657 19.7574 23.6736C19.6899 23.8112 19.6425 23.9577 19.6167 24.1088L18.5518 30.5088C18.5138 30.7379 18.526 30.9726 18.5877 31.1965C18.6494 31.4204 18.7591 31.6281 18.9091 31.8054C19.0591 31.9826 19.2458 32.125 19.4564 32.2227C19.6669 32.3204 19.8962 32.3711 20.1283 32.3712H22.7984C23.0314 32.3713 23.2616 32.3205 23.473 32.2222C23.6843 32.1239 23.8717 31.9806 24.0218 31.8023C24.172 31.6239 24.2814 31.4149 24.3424 31.1898C24.4034 30.9647 24.4144 30.729 24.3748 30.4992L23.2652 24.0992C23.2426 23.9645 23.2028 23.8333 23.1469 23.7088Z" fill="#7F3997"/>
</svg>
