<svg width="79" height="78" viewBox="0 0 79 78" fill="none" xmlns="http://www.w3.org/2000/svg">
<path d="M54.0039 78H24.9961C11.1711 78 0 66.9703 0 53.3203V24.6797C0 11.0297 11.1711 0 24.9961 0H54.0039C67.8289 0 79 11.0297 79 24.6797V53.3203C79 66.9703 67.8289 78 54.0039 78Z" fill="#7F3997"/>
<path d="M49.1281 15.1734C49.0664 13.4672 50.6094 11.8828 52.5844 11.9437C54.3125 12.0047 55.732 13.4672 55.732 15.2343C55.732 17.0625 54.1891 18.464 52.2758 18.464C50.5477 18.464 49.1281 16.9406 49.1281 15.1734Z" fill="white"/>
<path d="M56.1641 58.1344C58.0156 58.1344 59.4352 59.536 59.4352 61.3641C59.4352 63.1922 57.9539 64.6547 56.1023 64.6547C54.3125 64.6547 52.8312 63.1922 52.8312 61.3641C52.8312 59.536 54.3125 58.1344 56.1641 58.1344Z" fill="white"/>
<path d="M13.825 44.7281C11.9734 44.7281 10.5539 43.2656 10.5539 41.3765C10.5539 39.6093 12.0352 38.2078 13.8867 38.2078C15.7383 38.2078 17.1578 39.6703 17.1578 41.5593C17.0961 43.3265 15.6148 44.7281 13.825 44.7281Z" fill="white"/>
<path d="M50.5477 23.8875C50.5477 22.3031 51.782 21.0844 53.3867 21.0844C54.9297 21.0844 56.2258 22.364 56.2258 23.8875C56.2258 25.4109 54.9297 26.6906 53.3867 26.6906C51.782 26.6906 50.5477 25.4109 50.5477 23.8875Z" fill="white"/>
<path d="M20.9227 33.5765C22.5273 33.5765 23.7617 34.7953 23.8234 36.3187C23.8234 37.8422 22.5273 39.1219 20.9844 39.1219C19.4414 39.1219 18.1453 37.8422 18.1453 36.3187C18.0836 34.7953 19.3797 33.5765 20.9227 33.5765Z" fill="white"/>
<path d="M60.7313 27.6656C59.1883 27.6656 57.8922 26.3859 57.8922 24.8624C57.8922 23.2781 59.1883 22.0593 60.7313 22.0593C62.2742 22.0593 63.5703 23.339 63.5703 24.8624C63.5703 26.4468 62.3359 27.6656 60.7313 27.6656Z" fill="white"/>
<path d="M48.0789 60.6329C46.5359 60.6329 45.2399 59.3532 45.2399 57.8297C45.2399 56.3063 46.4742 55.0875 48.0789 55.0266C49.6219 55.0266 50.918 56.3063 50.918 57.8297C50.918 59.3532 49.6219 60.6329 48.0789 60.6329Z" fill="white"/>
<path d="M20.9227 29.5547C20.9227 31.0782 19.6266 32.3578 18.0836 32.3578C16.5406 32.3578 15.3063 31.0782 15.3063 29.5547C15.3063 28.0313 16.6023 26.7516 18.1453 26.7516C19.6883 26.6907 20.9844 27.9704 20.9227 29.5547Z" fill="white"/>
<path d="M43.45 66.4219C41.907 66.4219 40.6727 65.2032 40.6727 63.6188C40.6727 62.0954 41.907 60.8766 43.5117 60.8157C45.0547 60.8157 46.3508 62.0954 46.3508 63.6188C46.2891 65.2032 45.0547 66.4219 43.45 66.4219Z" fill="white"/>
<path d="M35.118 59.1703C35.118 57.8296 36.1672 56.7937 37.525 56.7937C38.8828 56.7937 39.932 57.8906 39.932 59.2312C39.932 60.5718 38.8211 61.6078 37.525 61.6078C36.1672 61.6078 35.118 60.5109 35.118 59.1703Z" fill="white"/>
<path d="M62.2742 32.2359C62.2742 33.5765 61.1633 34.6125 59.8672 34.6125C58.5711 34.6125 57.4602 33.5156 57.4602 32.2359C57.4602 30.8953 58.5711 29.7984 59.8672 29.8594C61.1633 29.8594 62.2742 30.8953 62.2742 32.2359Z" fill="white"/>
<path d="M27.4031 26.6296C27.4031 27.9703 26.3539 29.0062 24.9961 29.0062C23.6383 29.0062 22.5891 27.9703 22.5891 26.5687C22.5891 25.2281 23.6383 24.1921 24.9961 24.1921C26.4156 24.2531 27.4648 25.289 27.4031 26.6296Z" fill="white"/>
<path d="M30.2422 33.4547C30.2422 34.7953 29.193 35.8312 27.8352 35.8312C26.4773 35.8312 25.4281 34.7953 25.4281 33.4547C25.4281 32.114 26.4773 31.0172 27.8352 31.0781C29.193 31.0781 30.2422 32.114 30.2422 33.4547Z" fill="white"/>
<path d="M21.6016 20.414C21.6016 19.0734 22.7125 18.0375 24.0086 18.0375C25.3664 18.0375 26.4156 19.1344 26.4156 20.414C26.4156 21.7547 25.3664 22.7906 24.0086 22.7906C22.6508 22.7906 21.6016 21.7547 21.6016 20.414Z" fill="white"/>
<path d="M50.0539 31.261C50.0539 29.9203 51.1031 28.8844 52.4609 28.8844C53.8187 28.8844 54.9297 29.9813 54.868 31.3219C54.868 32.6625 53.757 33.6985 52.4609 33.6985C51.1031 33.5766 50.0539 32.5406 50.0539 31.261Z" fill="white"/>
<path d="M42.0922 51.0046C43.3883 51.0046 44.4992 52.1015 44.4992 53.3812C44.4992 54.7218 43.3883 55.7578 42.0305 55.7578C40.6726 55.7578 39.6234 54.7218 39.6234 53.3812C39.6851 52.0406 40.7961 51.0046 42.0922 51.0046Z" fill="white"/>
<path d="M34.9945 63.1312C34.9945 64.4718 33.9453 65.5077 32.5875 65.5077C31.2297 65.5077 30.1805 64.4718 30.1805 63.1312C30.1805 61.7906 31.2914 60.6937 32.5875 60.7546C33.9453 60.7546 34.9945 61.7906 34.9945 63.1312Z" fill="white"/>
<path d="M65.7305 36.8671C64.4344 36.8671 63.3852 35.7703 63.3234 34.4906C63.3234 33.1499 64.4344 32.114 65.7922 32.114C67.0883 32.114 68.1992 33.2109 68.1992 34.4906C68.1992 35.8312 67.0883 36.8671 65.7305 36.8671Z" fill="white"/>
<path d="M35.4883 54.4172C35.4883 55.575 34.5625 56.4891 33.3898 56.4281C32.2172 56.4281 31.2914 55.5141 31.2914 54.4172C31.2914 53.2594 32.2172 52.3453 33.3898 52.3453C34.5625 52.3453 35.4883 53.2594 35.4883 54.4172Z" fill="white"/>
<path d="M31.2914 23.4609C32.4641 23.4609 33.3281 24.375 33.3281 25.4719C33.3281 26.5687 32.4023 27.5438 31.2914 27.5438C30.1805 27.5438 29.193 26.6297 29.193 25.4719C29.2547 24.375 30.1805 23.4609 31.2914 23.4609Z" fill="white"/>
<path d="M35.9203 48.5672C35.9203 47.4094 36.7844 46.4954 37.957 46.4954C39.1297 46.4954 40.0555 47.4094 40.0555 48.5063C40.0555 49.6641 39.1297 50.5172 38.0187 50.5172C36.8461 50.5782 35.9203 49.725 35.9203 48.5672Z" fill="white"/>
<path d="M28.5141 60.3891C27.3414 60.3891 26.4156 59.536 26.4156 58.3781C26.4156 57.2203 27.3414 56.3672 28.4523 56.3063C29.625 56.3063 30.5508 57.2203 30.5508 58.3781C30.5508 59.475 29.625 60.3891 28.5141 60.3891Z" fill="white"/>
<path d="M52.2758 37.1719C52.2758 38.2687 51.4117 39.1828 50.2391 39.1828C49.0664 39.1828 48.1406 38.2687 48.2023 37.1109C48.2023 35.9531 49.1281 35.1 50.2391 35.1C51.4117 35.1 52.2758 36.014 52.2758 37.1719Z" fill="white"/>
<path d="M30.3039 21.3282C29.1312 21.3282 28.2055 20.475 28.2055 19.3172C28.2055 18.1594 29.1312 17.2454 30.3039 17.2454C31.4148 17.2454 32.3406 18.1594 32.4023 19.3172C32.4023 20.4141 31.4766 21.3282 30.3039 21.3282Z" fill="white"/>
<path d="M57.6453 40.2188C56.4727 40.2188 55.6086 39.3047 55.6086 38.2078C55.6086 37.111 56.5344 36.1969 57.707 36.1969C58.8797 36.1969 59.7437 37.111 59.7437 38.2688C59.7437 39.3656 58.818 40.2188 57.6453 40.2188Z" fill="white"/>
<path d="M34.0688 34.3687C32.9578 34.3687 32.032 33.4546 32.032 32.2968C32.032 31.2 33.0195 30.2859 34.1305 30.2859C35.3031 30.2859 36.1672 31.1999 36.1672 32.3578C36.1672 33.5156 35.2414 34.3687 34.0688 34.3687Z" fill="white"/>
<path d="M63.5703 42.4125C62.3976 42.3515 61.5336 41.4375 61.5336 40.2797C61.5953 39.1828 62.5211 38.2687 63.632 38.3297C64.8047 38.3906 65.7305 39.3047 65.6687 40.5234C65.607 41.6203 64.6812 42.4734 63.5703 42.4125Z" fill="white"/>
<path d="M39.5 34.3687C38.5125 34.3687 37.7102 33.5765 37.7102 32.6015C37.7102 31.6265 38.5125 30.8953 39.5 30.8953C40.4875 30.8953 41.2898 31.6874 41.2281 32.6624C41.2898 33.6374 40.5492 34.3687 39.5 34.3687Z" fill="white"/>
<path d="M58.8797 44.911C58.8797 43.936 59.6203 43.1438 60.6078 43.1438C61.5953 43.1438 62.3977 43.875 62.3977 44.911C62.3977 45.886 61.5336 46.7391 60.6078 46.7391C59.682 46.6782 58.8797 45.886 58.8797 44.911Z" fill="white"/>
<path d="M37.4633 19.6218C37.4633 20.5968 36.7227 21.3281 35.6734 21.3281C34.6859 21.3281 33.8836 20.5359 33.8836 19.5609C33.8836 18.5859 34.6859 17.7937 35.7352 17.8546C36.7227 17.8546 37.4633 18.6468 37.4633 19.6218Z" fill="white"/>
<path d="M37.2781 43.8141C37.2781 44.7891 36.5375 45.5203 35.55 45.5813C34.5008 45.5813 33.7601 44.7891 33.7601 43.8141C33.7601 42.8391 34.5625 42.0469 35.55 42.0469C36.5375 42.0469 37.2781 42.8391 37.2781 43.8141Z" fill="white"/>
<path d="M30.9828 51.3703C29.9953 51.3703 29.193 50.639 29.193 49.664C29.193 48.689 29.9953 47.8969 30.9828 47.8969C31.9086 47.8969 32.7109 48.689 32.7109 49.6031C32.7109 50.5781 31.9703 51.3703 30.9828 51.3703Z" fill="white"/>
<path d="M56.4726 42.6562C56.4726 43.6312 55.732 44.4234 54.6828 44.4234C53.757 44.4234 52.893 43.5703 52.893 42.6562C52.893 41.6812 53.6953 40.889 54.6828 40.889C55.732 40.889 56.4726 41.6812 56.4726 42.6562Z" fill="white"/>
<path d="M47.3383 39.9141C48.3875 39.9141 49.0664 40.6453 49.1281 41.6203C49.1281 42.5953 48.3875 43.3875 47.3383 43.3875C46.3508 43.3875 45.5484 42.5953 45.5484 41.6203C45.5484 40.6453 46.2891 39.9141 47.3383 39.9141Z" fill="white"/>
<path d="M27.7734 53.5641C27.7734 54.5391 26.9711 55.3313 25.9836 55.3313C24.9961 55.3313 24.1937 54.5391 24.1937 53.5641C24.1937 52.5891 24.9961 51.7969 25.9836 51.7969C26.9711 51.7969 27.7734 52.5891 27.7734 53.5641Z" fill="white"/>
<path d="M36.7227 27.5438C35.7352 27.5438 34.9328 26.7516 34.9328 25.7766C34.9328 24.8625 35.7352 24.0094 36.7227 24.0094C37.6484 24.0094 38.5125 24.8016 38.5125 25.7766C38.5125 26.7516 37.7102 27.5438 36.7227 27.5438Z" fill="white"/>
<path d="M52.9547 45.764C52.9547 46.6172 52.2758 47.2875 51.4117 47.2875C50.5477 47.2875 49.9305 46.6172 49.9305 45.764C49.9305 44.9109 50.6094 44.2406 51.4117 44.2406C52.2141 44.3015 52.893 44.9719 52.9547 45.764Z" fill="white"/>
<path d="M35.9203 39.3656C35.9203 40.2187 35.2414 40.889 34.4391 40.889C33.6367 40.889 32.8961 40.1578 32.8961 39.3656C32.8961 38.5734 33.6367 37.8422 34.4391 37.8422C35.2414 37.9031 35.9203 38.5734 35.9203 39.3656Z" fill="white"/>
<path d="M24.9344 47.6531C25.7984 47.6531 26.4773 48.3234 26.4156 49.1765C26.4156 49.9687 25.675 50.7 24.8727 50.7C24.0086 50.7 23.3297 49.9687 23.3297 49.1156C23.3914 48.2625 24.0703 47.6531 24.9344 47.6531Z" fill="white"/>
<path d="M43.9437 35.3437C43.0797 35.3437 42.4008 34.7344 42.4008 33.8812C42.4008 33.0281 43.018 32.3578 43.9437 32.3578C44.8078 32.3578 45.4867 33.0281 45.4867 33.8203C45.4867 34.7344 44.8078 35.3437 43.9437 35.3437Z" fill="white"/>
<path d="M41.1664 25.5328C42.0305 25.5328 42.6476 26.2031 42.6476 27.0563C42.6476 27.9094 41.9687 28.5797 41.1664 28.5797C40.3023 28.5797 39.6234 27.9094 39.6234 27.0563C39.6234 26.2031 40.3023 25.5328 41.1664 25.5328Z" fill="white"/>
<path d="M31.2914 45.2156C31.2914 46.0687 30.6125 46.739 29.8102 46.739C29.0078 46.739 28.2672 46.0078 28.2672 45.1546C28.2672 44.3015 28.9461 43.6921 29.8102 43.6921C30.6742 43.6921 31.2914 44.3625 31.2914 45.2156Z" fill="white"/>
<path d="M44.0055 43.3265C44.8695 43.3265 45.4867 43.9969 45.4867 44.85C45.4867 45.7031 44.8078 46.3125 44.0055 46.3125C43.1414 46.3125 42.4625 45.6422 42.4625 44.789C42.5242 43.9359 43.1414 43.3265 44.0055 43.3265Z" fill="white"/>
<path d="M58.818 48.0188C58.818 48.8719 58.2008 49.5422 57.275 49.5422C56.4109 49.5422 55.7938 48.8719 55.7938 48.0188C55.7938 47.2266 56.4727 46.4954 57.275 46.4954C58.1391 46.4954 58.818 47.1657 58.818 48.0188Z" fill="white"/>
<path d="M40.1789 19.3782C41.043 19.3782 41.6602 19.9875 41.6602 20.8407C41.6602 21.6938 40.9812 22.3641 40.1789 22.3641C39.3148 22.3641 38.6359 21.6938 38.6359 20.8407C38.6359 19.9875 39.3148 19.3782 40.1789 19.3782Z" fill="white"/>
<path d="M44.8695 22.7296C44.8695 23.4609 44.2523 24.0093 43.5117 24.0093C42.7711 24.0093 42.2156 23.3999 42.2156 22.7296C42.2156 21.9984 42.7711 21.45 43.5117 21.45C44.3141 21.45 44.8695 21.9984 44.8695 22.7296Z" fill="white"/>
<path d="M23.5148 45.2156C23.5148 44.4843 24.0703 43.9968 24.8109 43.9968C25.5516 43.9968 26.1687 44.6062 26.107 45.3375C26.107 46.0078 25.4898 46.6171 24.8109 46.6171C24.0703 46.6171 23.5148 46.0078 23.5148 45.2156Z" fill="white"/>
<path d="M55.3 50.0296C55.3 50.7609 54.7445 51.3703 54.0039 51.3703C53.2633 51.3703 52.6461 50.7609 52.6461 50.0906C52.6461 49.3593 53.2633 48.8109 54.0039 48.8109C54.7445 48.75 55.3 49.2984 55.3 50.0296Z" fill="white"/>
<path d="M31.0445 41.3765C31.0445 42.1078 30.4273 42.6562 29.7484 42.6562C29.0078 42.6562 28.4523 42.0468 28.4523 41.3156C28.4523 40.6453 29.0695 40.0359 29.7484 40.0359C30.4891 40.0359 31.0445 40.6453 31.0445 41.3765Z" fill="white"/>
<path d="M44.5609 30.1641C43.8203 30.1641 43.2648 29.6157 43.2648 28.8844C43.2648 28.1532 43.8203 27.6047 44.5609 27.6047C45.3016 27.6047 45.857 28.1532 45.857 28.8844C45.857 29.6766 45.3016 30.1641 44.5609 30.1641Z" fill="white"/>
<path d="M48.0789 46.4954C48.8195 46.4954 49.375 47.0438 49.375 47.775C49.375 48.5063 48.7578 49.1157 48.0172 49.1157C47.3383 49.1157 46.7828 48.5063 46.7828 47.836C46.7828 47.0438 47.3383 46.4954 48.0789 46.4954Z" fill="white"/>
<path d="M26.6008 42.1078C26.6008 42.7171 26.107 43.2046 25.4898 43.2046C24.8727 43.2046 24.3172 42.6562 24.3172 42.0468C24.3172 41.4375 24.8727 40.95 25.4898 40.95C26.1688 41.0109 26.6008 41.4375 26.6008 42.1078Z" fill="white"/>
<path d="M51.9672 51.0656C51.9672 51.675 51.4734 52.1625 50.8562 52.1625C50.2391 52.1625 49.7453 51.6141 49.7453 51.0656C49.7453 50.4563 50.2391 49.9688 50.918 49.9688C51.4734 49.9688 51.9672 50.4563 51.9672 51.0656Z" fill="white"/>
<path d="M45.9805 23.8265C46.6594 23.8265 47.1531 24.2531 47.1531 24.9234C47.1531 25.5328 46.6594 26.0203 46.0422 26.0203C45.425 26.0203 44.9313 25.5937 44.9313 24.9234C44.9313 24.314 45.3633 23.8265 45.9805 23.8265Z" fill="white"/>
</svg>
