<svg width="79" height="79" viewBox="0 0 79 79" fill="none" xmlns="http://www.w3.org/2000/svg">
<path d="M54.0039 79H24.9961C11.1711 79 0 67.8289 0 54.0039V24.9961C0 11.1711 11.1711 0 24.9961 0H54.0039C67.8289 0 79 11.1711 79 24.9961V54.0039C79 67.8289 67.8289 79 54.0039 79Z" fill="#7F3997"/>
<path d="M36.7227 54.0656L39.8086 42.339L47.1531 39.6234L49.0047 32.7109L48.943 32.5875L41.7219 35.2414L46.9062 15.5531H32.0937L25.243 41.2281L19.5648 43.3265L17.6516 50.4242L23.3914 48.3258L19.318 63.4469H58.818L61.3484 54.0656H36.7227Z" fill="white"/>
</svg>
