<svg width="54" height="48" viewBox="0 0 54 48" fill="none" xmlns="http://www.w3.org/2000/svg">
<path d="M49.511 28.2487L53.9427 8.74866C54.2626 7.34072 53.1925 6 51.7487 6H14.9267L14.0674 1.79906C13.8533 0.751969 12.932 0 11.8632 0H2.25141C1.0088 0 0.00149345 1.00734 0.00149345 2.25V3.75C0.00149345 4.99266 1.0088 6 2.25141 6H8.80271L15.3882 38.197C13.8127 39.1031 12.751 40.8021 12.751 42.75C12.751 45.6495 15.1015 48 18.0008 48C20.9002 48 23.2507 45.6495 23.2507 42.75C23.2507 41.2806 22.6463 39.953 21.6735 39H41.3272C40.3545 39.953 39.7501 41.2806 39.7501 42.75C39.7501 45.6495 42.1005 48 44.9999 48C47.8993 48 50.2497 45.6495 50.2497 42.75C50.2497 40.6714 49.0415 38.8751 47.2893 38.0245L47.8065 35.7487C48.1264 34.3407 47.0563 33 45.6125 33H20.4492L19.8357 30H47.317C48.3675 30 49.2782 29.2731 49.511 28.2487Z" fill="#7F3997"/>
</svg>
