<svg width="48" height="48" viewBox="0 0 48 48" fill="none" xmlns="http://www.w3.org/2000/svg">
<path d="M24 0C10.7464 0 0 10.7464 0 24C0 37.2536 10.7464 48 24 48C37.2536 48 48 37.2536 48 24C48 10.7464 37.2536 0 24 0ZM25.1946 35.6357L25.2054 37.3339C25.2054 37.5696 25.0125 37.7679 24.7768 37.7679H23.2554C23.0196 37.7679 22.8268 37.575 22.8268 37.3393V35.6571C18.0696 35.3036 15.8304 32.5929 15.5893 29.6464C15.5679 29.3946 15.7661 29.1804 16.0179 29.1804H18.4929C18.7018 29.1804 18.8839 29.3304 18.9161 29.5339C19.1893 31.2321 20.5125 32.5018 22.8857 32.8179V25.1732L21.5625 24.8357C18.7607 24.1661 16.0929 22.4196 16.0929 18.7982C16.0929 14.8929 19.0607 12.7929 22.8536 12.4232V10.6554C22.8536 10.4196 23.0464 10.2268 23.2821 10.2268H24.7875C25.0232 10.2268 25.2161 10.4196 25.2161 10.6554V12.4071C28.8857 12.7768 31.6393 14.9196 31.9607 18.2571C31.9875 18.5089 31.7893 18.7286 31.5321 18.7286H29.1268C28.9125 18.7286 28.7304 18.5679 28.7036 18.3589C28.4893 16.7946 27.2357 15.5196 25.1946 15.2411V22.4357L26.5554 22.7518C30.0268 23.6089 32.3893 25.2696 32.3893 28.9875C32.3893 33.0214 29.3893 35.2714 25.1946 35.6357ZM19.425 18.5518C19.425 19.9125 20.2661 20.9679 22.0768 21.6214C22.3286 21.7232 22.5804 21.8036 22.8804 21.8893V15.2464C20.9036 15.4982 19.425 16.6071 19.425 18.5518ZM25.6661 25.7946C25.5161 25.7625 25.3661 25.725 25.1946 25.6768V32.8393C27.4768 32.6357 29.0518 31.3821 29.0518 29.2821C29.0518 27.6375 28.2 26.5661 25.6661 25.7946Z" fill="#7F3997"/>
</svg>
