<svg width="491" height="325" viewBox="0 0 491 325" fill="none" xmlns="http://www.w3.org/2000/svg">
<g clip-path="url(#clip0)">
<path d="M360.65 309.637H350.102V206.972L374.075 206.493L360.65 309.637Z" fill="#FFB8B8"/>
<path d="M411.475 309.637H422.023V206.972L398.049 206.493L411.475 309.637Z" fill="#FFB8B8"/>
<path d="M355.7 323.917L333.256 323.711C332.181 323.977 331.06 323.995 329.978 323.763C328.895 323.531 327.88 323.055 327.008 322.373C326.136 321.69 325.432 320.817 324.947 319.822C324.462 318.826 324.21 317.733 324.21 316.625C324.21 315.25 324.598 313.904 325.329 312.74C326.06 311.576 327.105 310.643 328.343 310.047L333.463 307.583L350.102 296.205L362.089 299.563L364.384 309.9C365.053 312.908 364.518 316.058 362.895 318.678C361.273 321.297 358.69 323.177 355.7 323.917Z" fill="#2F2E41"/>
<path d="M416.114 323.79L393.67 323.584C392.595 323.85 391.474 323.867 390.392 323.635C389.309 323.403 388.294 322.928 387.422 322.245C386.55 321.562 385.845 320.69 385.361 319.694C384.876 318.698 384.624 317.605 384.624 316.498C384.624 315.123 385.012 313.776 385.743 312.613C386.474 311.449 387.519 310.515 388.757 309.919L393.877 307.455L410.516 296.077L422.502 299.435L424.798 309.772C425.466 312.781 424.932 315.931 423.309 318.55C421.687 321.17 419.104 323.05 416.114 323.79Z" fill="#2F2E41"/>
<path d="M424.889 223.799L391.841 220.847L387.49 182.062L377.745 219.588L344.337 216.603C345.569 193.624 348.219 174.456 354.406 164.791L424.409 152.318L424.889 223.799Z" fill="#2F2E41"/>
<path d="M391.49 44.1804C401.352 44.1804 409.346 36.1813 409.346 26.3139C409.346 16.4466 401.352 8.44751 391.49 8.44751C381.628 8.44751 373.633 16.4466 373.633 26.3139C373.633 36.1813 381.628 44.1804 391.49 44.1804Z" fill="#FFB8B8"/>
<path d="M405.71 63.5657L374.544 59.7278C378.509 51.2796 380.296 43.391 377.421 36.7002H401.394C397.688 43.3178 401.003 53.1254 405.71 63.5657Z" fill="#FFB8B8"/>
<path d="M424.409 153.277C402.479 169.366 378.546 174.855 352.488 169.109C368.299 132.993 366.041 97.3972 352.488 62.1266L377.421 51.5723C384.412 58.3955 392.429 58.5439 401.394 52.5318L425.848 57.8089C421.375 92.9951 419.875 125.677 424.409 153.277Z" fill="#3F3D56"/>
<path d="M378.316 10.7181L375.301 9.51032C375.301 9.51032 381.606 2.56541 390.377 3.16933L387.91 0.451709C387.91 0.451709 393.941 -1.96389 399.423 4.3771C402.305 7.71042 405.64 11.6286 407.718 16.0423H410.947L409.6 19.0115L414.317 21.9807L409.475 21.4474C409.934 24.0108 409.777 26.6465 409.017 29.1373L409.147 31.4841C409.147 31.4841 403.535 22.7962 403.535 21.5884V24.6079C403.535 24.6079 400.519 21.8904 400.519 20.0786L398.875 22.1923L398.052 18.8708L387.91 22.1923L389.555 19.4748L383.25 20.3806L385.717 17.0591C385.717 17.0591 378.59 20.9845 378.316 24.306C378.042 27.6275 374.479 31.8548 374.479 31.8548L372.834 28.8353C372.834 28.8353 370.367 15.2474 378.316 10.7181Z" fill="#2F2E41"/>
<path d="M428.782 191.262H320.48C319.382 191.261 318.329 190.824 317.552 190.047C316.775 189.27 316.339 188.216 316.337 187.117V170.537C316.339 169.438 316.775 168.385 317.552 167.608C318.329 166.831 319.382 166.394 320.48 166.392H428.782C429.88 166.394 430.933 166.831 431.71 167.608C432.487 168.385 432.923 169.438 432.925 170.537V187.117C432.923 188.216 432.487 189.27 431.71 190.047C430.933 190.824 429.88 191.261 428.782 191.262Z" fill="#7F3997"/>
<path d="M336.672 175.306C335.749 175.322 334.869 175.699 334.221 176.358C333.574 177.017 333.211 177.903 333.211 178.827C333.211 179.751 333.574 180.638 334.221 181.296C334.869 181.955 335.749 182.333 336.672 182.348H412.475C413.406 182.36 414.305 182.003 414.973 181.354C415.641 180.704 416.025 179.817 416.041 178.885C416.056 177.953 415.701 177.053 415.055 176.382C414.408 175.711 413.522 175.324 412.59 175.306C412.552 175.306 412.513 175.306 412.475 175.306H336.672Z" fill="white"/>
<path d="M363.516 162.392L369.021 172.211C369.673 173.374 370.049 174.671 370.122 176.002C370.195 177.333 369.961 178.663 369.44 179.889C368.918 181.116 368.123 182.207 367.114 183.078C366.105 183.949 364.91 184.576 363.621 184.913C362.319 185.253 360.955 185.286 359.638 185.011C358.321 184.735 357.085 184.158 356.028 183.324C354.971 182.491 354.121 181.424 353.545 180.207C352.97 178.989 352.683 177.655 352.709 176.309L352.968 162.872C348.832 138.987 345.474 116.373 346.255 100.506H365.434L361.598 118.736L363.516 162.392Z" fill="#FFB8B8"/>
<path d="M426.807 164.791L422.774 171.515C422.114 172.616 421.192 173.536 420.09 174.192C418.988 174.849 417.741 175.223 416.459 175.28C415.178 175.336 413.902 175.074 412.746 174.517C411.591 173.96 410.591 173.126 409.837 172.088C409.234 171.258 408.801 170.317 408.563 169.319C408.325 168.321 408.287 167.286 408.452 166.274C408.616 165.261 408.979 164.291 409.52 163.419C410.061 162.548 410.769 161.792 411.603 161.196L418.656 156.156L428.725 114.418L422.491 97.1475L439.753 94.269C447.857 113.01 439.694 137.994 426.807 164.791Z" fill="#FFB8B8"/>
<path d="M369.749 104.344L344.337 102.904L346.083 75.6602C345.995 71.8036 347.207 68.0298 349.524 64.9464C351.841 61.863 355.128 59.6496 358.855 58.6624L362.078 57.8088L369.749 104.344Z" fill="#3F3D56"/>
<path d="M441.67 95.7083L418.176 101.465V56.3695L419.146 56.3069C423.007 56.0577 426.83 57.2057 429.916 59.5416C433.002 61.8776 435.146 65.2457 435.957 69.0316L441.67 95.7083Z" fill="#3F3D56"/>
<path d="M491 323.816H132.303V325H491V323.816Z" fill="#E6E6E6"/>
<path d="M15.7645 288.869C16.0856 300.87 18.0947 312.767 21.7328 324.207C21.816 324.473 21.9031 324.734 21.9902 325H44.2636C44.2399 324.762 44.2161 324.497 44.1923 324.207C42.7072 307.125 34.1447 203.154 44.3824 185.373C43.4874 186.816 14.0377 234.589 15.7645 288.869Z" fill="#E6E6E6"/>
<path d="M17.4357 324.207C17.6219 324.473 17.8159 324.738 18.0139 325H34.7229C34.5962 324.774 34.4497 324.509 34.2794 324.207C31.5189 319.222 23.3486 304.319 15.7644 288.869C7.6139 272.265 0.136637 255.032 0.766352 248.795C0.572272 250.202 -5.06736 293.085 17.4357 324.207Z" fill="#E6E6E6"/>
<path d="M226.004 132.829H44.3167C43.2184 132.828 42.1654 132.391 41.3888 131.614C40.6122 130.836 40.1753 129.783 40.174 128.684V27.4275C40.1753 26.3285 40.6122 25.275 41.3888 24.4979C42.1654 23.7209 43.2184 23.2838 44.3167 23.2825H226.004C227.102 23.2838 228.155 23.7209 228.932 24.498C229.708 25.275 230.145 26.3286 230.147 27.4275V128.684C230.145 129.783 229.708 130.836 228.932 131.613C228.155 132.391 227.102 132.828 226.004 132.829Z" fill="#7F3997"/>
<path d="M228.252 325H41.8296C41.0451 324.999 40.293 324.687 39.7383 324.132C39.1835 323.577 38.8715 322.824 38.8705 322.039V25.9822C38.8715 25.1973 39.1835 24.4447 39.7383 23.8897C40.293 23.3346 41.0451 23.0224 41.8296 23.0215H228.252C229.036 23.0224 229.788 23.3346 230.343 23.8897C230.898 24.4447 231.21 25.1973 231.211 25.9822V322.039C231.21 322.824 230.898 323.577 230.343 324.132C229.788 324.687 229.036 324.999 228.252 325ZM41.8296 24.2058C41.3589 24.2063 40.9076 24.3936 40.5748 24.7266C40.2419 25.0597 40.0547 25.5112 40.0542 25.9822V322.039C40.0547 322.51 40.2419 322.962 40.5748 323.295C40.9076 323.628 41.3589 323.815 41.8296 323.816H228.252C228.722 323.815 229.174 323.628 229.506 323.295C229.839 322.962 230.027 322.51 230.027 322.039V25.9822C230.027 25.5112 229.839 25.0597 229.506 24.7266C229.174 24.3936 228.722 24.2063 228.252 24.2058H41.8296Z" fill="#E6E6E6"/>
<path d="M63.8466 187.898C67.442 187.898 70.3566 184.982 70.3566 181.385C70.3566 177.787 67.442 174.871 63.8466 174.871C60.2513 174.871 57.3367 177.787 57.3367 181.385C57.3367 184.982 60.2513 187.898 63.8466 187.898Z" fill="#E6E6E6"/>
<path d="M201.148 193.82H92.8456C91.7473 193.818 90.6943 193.381 89.9177 192.604C89.141 191.827 88.7042 190.774 88.7029 189.675V173.095C88.7042 171.996 89.141 170.942 89.9177 170.165C90.6943 169.388 91.7473 168.951 92.8456 168.95H201.148C202.246 168.951 203.299 169.388 204.076 170.165C204.852 170.942 205.289 171.996 205.29 173.095V189.675C205.289 190.774 204.852 191.827 204.076 192.604C203.299 193.381 202.246 193.818 201.148 193.82Z" fill="#E6E6E6"/>
<path d="M205.29 194.412H88.7028C88.5459 194.412 88.3954 194.349 88.2844 194.238C88.1734 194.127 88.111 193.977 88.111 193.82C88.111 193.663 88.1734 193.512 88.2844 193.401C88.3954 193.29 88.5459 193.228 88.7028 193.228H205.29C205.447 193.228 205.598 193.29 205.709 193.401C205.82 193.512 205.882 193.663 205.882 193.82C205.882 193.977 205.82 194.127 205.709 194.238C205.598 194.349 205.447 194.412 205.29 194.412Z" fill="#3F3D56"/>
<path d="M63.8466 226.98C67.442 226.98 70.3566 224.064 70.3566 220.466C70.3566 216.869 67.442 213.953 63.8466 213.953C60.2513 213.953 57.3367 216.869 57.3367 220.466C57.3367 224.064 60.2513 226.98 63.8466 226.98Z" fill="#E6E6E6"/>
<path d="M201.148 232.901H92.8456C91.7473 232.9 90.6943 232.463 89.9177 231.686C89.141 230.908 88.7042 229.855 88.7029 228.756V212.176C88.7042 211.077 89.141 210.024 89.9177 209.246C90.6943 208.469 91.7473 208.032 92.8456 208.031H201.148C202.246 208.032 203.299 208.469 204.076 209.247C204.852 210.024 205.289 211.077 205.29 212.176V228.756C205.289 229.855 204.852 230.908 204.076 231.686C203.299 232.463 202.246 232.9 201.148 232.901Z" fill="#E6E6E6"/>
<path d="M205.29 233.493H88.7028C88.5459 233.493 88.3954 233.431 88.2844 233.32C88.1734 233.209 88.111 233.058 88.111 232.901C88.111 232.744 88.1734 232.594 88.2844 232.482C88.3954 232.371 88.5459 232.309 88.7028 232.309H205.29C205.447 232.309 205.598 232.371 205.709 232.482C205.82 232.594 205.882 232.744 205.882 232.901C205.882 233.058 205.82 233.209 205.709 233.32C205.598 233.431 205.447 233.493 205.29 233.493Z" fill="#3F3D56"/>
<path d="M63.8466 266.061C67.442 266.061 70.3566 263.145 70.3566 259.548C70.3566 255.95 67.442 253.034 63.8466 253.034C60.2513 253.034 57.3367 255.95 57.3367 259.548C57.3367 263.145 60.2513 266.061 63.8466 266.061Z" fill="#E6E6E6"/>
<path d="M137.824 271.983H92.8456C91.7473 271.981 90.6943 271.544 89.9177 270.767C89.141 269.99 88.7042 268.936 88.7029 267.838V251.258C88.7042 250.159 89.141 249.105 89.9177 248.328C90.6943 247.551 91.7473 247.114 92.8456 247.113H137.824C138.922 247.114 139.975 247.551 140.751 248.328C141.528 249.105 141.965 250.159 141.966 251.258V267.838C141.965 268.936 141.528 269.99 140.751 270.767C139.975 271.544 138.922 271.981 137.824 271.983Z" fill="#E6E6E6"/>
<path d="M141.966 272.575H88.7028C88.5459 272.575 88.3954 272.512 88.2844 272.401C88.1734 272.29 88.111 272.14 88.111 271.983C88.111 271.825 88.1734 271.675 88.2844 271.564C88.3954 271.453 88.5459 271.39 88.7028 271.39H141.966C142.123 271.39 142.274 271.453 142.385 271.564C142.496 271.675 142.558 271.825 142.558 271.983C142.558 272.14 142.496 272.29 142.385 272.401C142.274 272.512 142.123 272.575 141.966 272.575Z" fill="#3F3D56"/>
<path d="M201.148 271.983H156.17C155.071 271.981 154.018 271.544 153.242 270.767C152.465 269.99 152.028 268.936 152.027 267.838V251.258C152.028 250.159 152.465 249.105 153.242 248.328C154.018 247.551 155.071 247.114 156.17 247.113H201.148C202.246 247.114 203.299 247.551 204.076 248.328C204.852 249.105 205.289 250.159 205.29 251.258V267.838C205.289 268.936 204.852 269.99 204.076 270.767C203.299 271.544 202.246 271.981 201.148 271.983Z" fill="#E6E6E6"/>
<path d="M205.29 272.575H152.027C151.87 272.575 151.72 272.512 151.609 272.401C151.498 272.29 151.435 272.14 151.435 271.983C151.435 271.825 151.498 271.675 151.609 271.564C151.72 271.453 151.87 271.39 152.027 271.39H205.29C205.447 271.39 205.598 271.453 205.709 271.564C205.82 271.675 205.882 271.825 205.882 271.983C205.882 272.14 205.82 272.29 205.709 272.401C205.598 272.512 205.447 272.575 205.29 272.575Z" fill="#3F3D56"/>
<path d="M64.0594 54.9941C63.1361 55.0093 62.2558 55.387 61.6083 56.0456C60.9607 56.7042 60.5978 57.5911 60.5978 58.515C60.5978 59.4389 60.9607 60.3258 61.6083 60.9844C62.2558 61.6431 63.1361 62.0207 64.0594 62.0359H206.146C206.608 62.044 207.068 61.9609 207.498 61.7912C207.928 61.6215 208.321 61.3686 208.653 61.047C208.986 60.7254 209.252 60.3413 209.436 59.9168C209.62 59.4923 209.719 59.0356 209.726 58.5729C209.734 58.1102 209.65 57.6505 209.48 57.2202C209.31 56.7899 209.057 56.3973 208.735 56.0649C208.413 55.7326 208.029 55.4669 207.605 55.2832C207.18 55.0994 206.724 55.0012 206.261 54.9941C206.223 54.9935 206.184 54.9935 206.146 54.9941H64.0594Z" fill="white"/>
<path d="M64.0594 74.5347C63.1361 74.5499 62.2558 74.9275 61.6083 75.5861C60.9607 76.2448 60.5978 77.1317 60.5978 78.0556C60.5978 78.9795 60.9607 79.8663 61.6083 80.525C62.2558 81.1836 63.1361 81.5613 64.0594 81.5765H206.146C207.078 81.5907 207.978 81.234 208.648 80.5847C209.318 79.9353 209.703 79.0464 209.719 78.1133C209.734 77.1802 209.378 76.2791 208.73 75.6081C208.082 74.9371 207.194 74.551 206.261 74.5347C206.223 74.534 206.184 74.534 206.146 74.5347H64.0594Z" fill="white"/>
<path d="M64.0594 94.0754C63.1361 94.0906 62.2558 94.4683 61.6083 95.1269C60.9607 95.7856 60.5978 96.6724 60.5978 97.5963C60.5978 98.5202 60.9607 99.4071 61.6083 100.066C62.2558 100.724 63.1361 101.102 64.0594 101.117H206.146C207.078 101.132 207.978 100.775 208.648 100.125C209.318 99.4761 209.703 98.5872 209.719 97.6541C209.734 96.7209 209.378 95.8199 208.73 95.1489C208.082 94.4779 207.194 94.0918 206.261 94.0754C206.223 94.0748 206.184 94.0748 206.146 94.0754H64.0594Z" fill="white"/>
<path d="M199.844 301.174L198.355 299.683C198.323 299.651 198.284 299.626 198.242 299.608C198.2 299.591 198.155 299.582 198.11 299.582H197.385C197.317 299.582 197.25 299.602 197.193 299.64C197.136 299.678 197.092 299.733 197.066 299.796C197.039 299.859 197.033 299.929 197.046 299.996C197.059 300.063 197.092 300.125 197.141 300.173L197.965 300.998H191.383C191.226 300.998 191.075 301.06 190.964 301.171C190.853 301.282 190.791 301.433 190.791 301.59C190.791 301.747 190.853 301.897 190.964 302.008C191.075 302.12 191.226 302.182 191.383 302.182H197.965L197.225 302.922C197.17 302.978 197.132 303.048 197.117 303.125C197.101 303.201 197.109 303.281 197.139 303.353C197.169 303.426 197.22 303.487 197.285 303.531C197.35 303.574 197.426 303.598 197.504 303.598H198.09C198.141 303.598 198.193 303.587 198.241 303.567C198.289 303.548 198.332 303.518 198.369 303.482L199.844 302.006C199.899 301.951 199.942 301.886 199.972 301.815C200.001 301.744 200.016 301.667 200.016 301.59C200.016 301.512 200.001 301.436 199.972 301.365C199.942 301.293 199.899 301.228 199.844 301.174Z" fill="#7F3997"/>
<path d="M195.821 311.064C193.949 311.064 192.118 310.509 190.561 309.468C189.004 308.427 187.79 306.947 187.073 305.216C186.357 303.484 186.169 301.579 186.534 299.742C186.9 297.904 187.802 296.216 189.126 294.891C190.45 293.566 192.137 292.663 193.974 292.298C195.811 291.932 197.715 292.12 199.445 292.837C201.175 293.554 202.654 294.768 203.695 296.326C204.735 297.884 205.291 299.716 205.291 301.59C205.288 304.102 204.289 306.51 202.514 308.286C200.739 310.062 198.332 311.061 195.821 311.064ZM195.821 293.3C194.183 293.3 192.581 293.786 191.218 294.697C189.856 295.608 188.794 296.903 188.167 298.418C187.54 299.932 187.376 301.599 187.695 303.207C188.015 304.815 188.804 306.293 189.963 307.452C191.122 308.611 192.598 309.401 194.205 309.721C195.812 310.041 197.478 309.876 198.992 309.249C200.506 308.622 201.8 307.559 202.711 306.196C203.621 304.832 204.107 303.23 204.107 301.59C204.104 299.392 203.231 297.285 201.677 295.731C200.124 294.177 198.018 293.302 195.821 293.3Z" fill="#3F3D56"/>
</g>
<defs>
<clipPath id="clip0">
<rect width="491" height="325" fill="white"/>
</clipPath>
</defs>
</svg>
