<svg width="38" height="38" viewBox="0 0 38 38" fill="none" xmlns="http://www.w3.org/2000/svg">
<path fill-rule="evenodd" clip-rule="evenodd" d="M3.8 0C2.79218 0 1.82563 0.400356 1.11299 1.11299C0.400356 1.82563 0 2.79218 0 3.8L0 34.2C0 35.2078 0.400356 36.1744 1.11299 36.887C1.82563 37.5996 2.79218 38 3.8 38H34.2C35.2078 38 36.1744 37.5996 36.887 36.887C37.5996 36.1744 38 35.2078 38 34.2V3.8C38 2.79218 37.5996 1.82563 36.887 1.11299C36.1744 0.400356 35.2078 0 34.2 0L3.8 0ZM16.4667 22.8C14.1151 22.8 11.8598 23.7342 10.197 25.397C8.53416 27.0598 7.6 29.3151 7.6 31.6667V34.2C7.6 34.5359 7.73345 34.8581 7.971 35.0957C8.20854 35.3332 8.53073 35.4667 8.86667 35.4667H29.1333C29.4693 35.4667 29.7915 35.3332 30.029 35.0957C30.2665 34.8581 30.4 34.5359 30.4 34.2V31.6667C30.4 29.3151 29.4658 27.0598 27.803 25.397C26.1402 23.7342 23.8849 22.8 21.5333 22.8H16.4667ZM12.6667 13.9333C12.6667 12.2536 13.3339 10.6427 14.5217 9.45499C15.7094 8.26726 17.3203 7.6 19 7.6C20.6797 7.6 22.2906 8.26726 23.4783 9.45499C24.6661 10.6427 25.3333 12.2536 25.3333 13.9333C25.3333 15.613 24.6661 17.2239 23.4783 18.4117C22.2906 19.5994 20.6797 20.2667 19 20.2667C17.3203 20.2667 15.7094 19.5994 14.5217 18.4117C13.3339 17.2239 12.6667 15.613 12.6667 13.9333Z" fill="#7F3997"/>
</svg>
