<svg width="38" height="38" viewBox="0 0 38 38" fill="none" xmlns="http://www.w3.org/2000/svg">
<path d="M8.07008 26.6001C9.90523 26.6001 11.3946 28.0895 11.3946 29.9247V34.6702C11.3946 35.5519 11.0444 36.3975 10.4209 37.021C9.79741 37.6445 8.95181 37.9947 8.07008 37.9947H3.32454C2.44282 37.9947 1.59721 37.6445 0.973735 37.021C0.350263 36.3975 0 35.5519 0 34.6702V29.9247C0 28.0895 1.48939 26.6001 3.32454 26.6001H8.07008ZM14.7192 30.3958H36.5756C36.9366 30.3959 37.2841 30.533 37.5479 30.7795C37.8117 31.0259 37.9721 31.3633 37.9967 31.7235C38.0213 32.0836 37.9083 32.4397 37.6805 32.7197C37.4526 32.9998 37.127 33.1829 36.7694 33.2321L36.5756 33.2454H14.7192C14.3582 33.2453 14.0107 33.1081 13.7469 32.8617C13.4831 32.6152 13.3227 32.2779 13.2981 31.9177C13.2735 31.5576 13.3865 31.2015 13.6143 30.9214C13.8421 30.6414 14.1678 30.4583 14.5254 30.4091L14.7192 30.3958H36.5756H14.7192ZM8.07008 13.3001C9.90523 13.3001 11.3946 14.7895 11.3946 16.6246V21.3701C11.3946 22.2519 11.0444 23.0975 10.4209 23.7209C9.79741 24.3444 8.95181 24.6947 8.07008 24.6947H3.32454C2.44282 24.6947 1.59721 24.3444 0.973735 23.7209C0.350263 23.0975 0 22.2519 0 21.3701V16.6227C0 14.7876 1.48939 13.2982 3.32454 13.2982H8.07008V13.3001ZM14.7192 17.0976H36.5756C36.9366 17.0977 37.2841 17.2349 37.5479 17.4813C37.8117 17.7278 37.9721 18.0652 37.9967 18.4253C38.0213 18.7855 37.9083 19.1415 37.6805 19.4216C37.4526 19.7016 37.127 19.8847 36.7694 19.9339L36.5756 19.9472H14.7192C14.3582 19.9471 14.0107 19.81 13.7469 19.5635C13.4831 19.3171 13.3227 18.9797 13.2981 18.6195C13.2735 18.2594 13.3865 17.9033 13.6143 17.6233C13.8421 17.3433 14.1678 17.1601 14.5254 17.1109L14.7192 17.0976H36.5756H14.7192ZM8.07008 0C9.90523 0 11.3946 1.48939 11.3946 3.32454V8.07008C11.3946 8.95181 11.0444 9.79741 10.4209 10.4209C9.79741 11.0444 8.95181 11.3946 8.07008 11.3946H3.32454C2.44282 11.3946 1.59721 11.0444 0.973735 10.4209C0.350263 9.79741 0 8.95181 0 8.07008V3.32454C0 1.48939 1.48939 0 3.32454 0H8.07008ZM14.7192 3.79947H36.5756C36.9366 3.79958 37.2841 3.93672 37.5479 4.18317C37.8117 4.42962 37.9721 4.76701 37.9967 5.12716C38.0213 5.48732 37.9083 5.84339 37.6805 6.12342C37.4526 6.40345 37.127 6.58657 36.7694 6.63578L36.5756 6.64908H14.7192C14.3582 6.64897 14.0107 6.51183 13.7469 6.26538C13.4831 6.01893 13.3227 5.68155 13.2981 5.32139C13.2735 4.96124 13.3865 4.60517 13.6143 4.32513C13.8421 4.0451 14.1678 3.86198 14.5254 3.81277L14.7192 3.79947H36.5756H14.7192Z" fill="#7F3997"/>
</svg>
