<svg width="81" height="81" viewBox="0 0 81 81" fill="none" xmlns="http://www.w3.org/2000/svg">
<path d="M40.5 4.5C33.3799 4.5 26.4197 6.61136 20.4995 10.5671C14.5793 14.5228 9.96511 20.1453 7.24035 26.7234C4.5156 33.3015 3.80268 40.5399 5.19175 47.5233C6.58081 54.5066 10.0095 60.9212 15.0442 65.9559C20.0789 70.9905 26.4935 74.4192 33.4768 75.8083C40.4601 77.1973 47.6985 76.4844 54.2766 73.7597C60.8548 71.0349 66.4772 66.4207 70.4329 60.5005C74.3887 54.5804 76.5 47.6201 76.5 40.5C76.5 30.9522 72.7072 21.7955 65.9559 15.0442C59.2046 8.29285 50.0478 4.5 40.5 4.5V4.5ZM40.5 72C34.2699 72 28.1797 70.1526 22.9996 66.6913C17.8194 63.23 13.782 58.3104 11.3978 52.5545C9.01365 46.7987 8.38985 40.4651 9.60528 34.3547C10.8207 28.2443 13.8208 22.6315 18.2262 18.2261C22.6315 13.8208 28.2443 10.8207 34.3547 9.60526C40.4651 8.38983 46.7987 9.01364 52.5545 11.3978C58.3104 13.782 63.23 17.8194 66.6913 22.9995C70.1526 28.1797 72 34.2699 72 40.5C72 48.8543 68.6813 56.8665 62.7739 62.7739C56.8665 68.6813 48.8543 72 40.5 72Z" fill="#4BA94F"/>
<path d="M63 27.225C62.5784 26.8059 62.0082 26.5707 61.4137 26.5707C60.8193 26.5707 60.2491 26.8059 59.8275 27.225L34.8525 52.0875L21.3525 38.5875C20.9407 38.1429 20.3692 37.8801 19.7637 37.8569C19.1582 37.8337 18.5683 38.052 18.1237 38.4637C17.6792 38.8755 17.4164 39.447 17.3932 40.0525C17.3699 40.658 17.5882 41.2479 18 41.6925L34.8525 58.5L63 30.42C63.2109 30.2108 63.3783 29.962 63.4925 29.6878C63.6067 29.4136 63.6655 29.1195 63.6655 28.8225C63.6655 28.5255 63.6067 28.2314 63.4925 27.9572C63.3783 27.683 63.2109 27.4342 63 27.225Z" fill="#4BA94F"/>
</svg>
