<svg width="839" height="653" viewBox="0 0 839 653" fill="none" xmlns="http://www.w3.org/2000/svg">
<g clip-path="url(#clip0)">
<path d="M739.206 607.286C739.145 607.017 733.232 580.051 745.308 557.655C757.384 535.259 783.162 525.382 783.421 525.285L784.599 524.843L784.877 526.071C784.939 526.34 790.852 553.306 778.775 575.702C766.7 598.098 740.921 607.975 740.662 608.072L739.484 608.514L739.206 607.286ZM782.983 527.839C777.82 530.061 757.441 539.782 747.242 558.697C737.041 577.614 740.119 599.985 741.1 605.517C746.261 603.302 766.632 593.595 776.842 574.66C787.042 555.743 783.965 533.375 782.983 527.839Z" fill="#3F3D56"/>
<path d="M769.547 567.846C747.845 580.903 739.487 606.838 739.487 606.838C739.487 606.838 766.314 611.603 788.016 598.546C809.718 585.489 818.076 559.555 818.076 559.555C818.076 559.555 791.248 554.789 769.547 567.846Z" fill="#D0CDE1"/>
<path d="M298.039 489.28C295.458 489.28 292.851 489.239 290.293 489.159L290.351 487.3C294.025 487.415 297.775 487.447 301.466 487.396L301.492 489.256C300.343 489.272 299.192 489.279 298.039 489.28ZM312.684 488.848L312.575 486.992C316.255 486.774 319.982 486.469 323.653 486.085L323.847 487.934C320.148 488.322 316.393 488.63 312.684 488.848ZM279.11 488.558C275.399 488.274 271.649 487.902 267.964 487.449L268.191 485.603C271.848 486.051 275.569 486.422 279.251 486.704L279.11 488.558ZM334.955 486.513L334.677 484.674C338.333 484.119 342.017 483.475 345.624 482.758L345.987 484.582C342.351 485.305 338.64 485.954 334.955 486.513ZM256.883 485.832C253.217 485.211 249.517 484.497 245.885 483.709L246.28 481.89C249.884 482.673 253.555 483.382 257.193 483.997L256.883 485.832ZM356.919 482.147L356.473 480.341C360.061 479.454 363.67 478.473 367.199 477.426L367.728 479.21C364.172 480.265 360.536 481.253 356.919 482.147ZM234.998 481.081C231.402 480.124 227.784 479.072 224.243 477.952L224.804 476.179C228.318 477.29 231.908 478.334 235.476 479.282L234.998 481.081ZM378.389 475.777L377.779 474.021C381.262 472.81 384.764 471.501 388.191 470.129L388.882 471.857C385.429 473.238 381.899 474.557 378.389 475.777ZM213.616 474.32C210.124 473.037 206.61 471.652 203.173 470.204L203.895 468.489C207.306 469.926 210.793 471.3 214.259 472.574L213.616 474.32ZM399.159 467.467L398.389 465.773C401.733 464.254 405.095 462.631 408.381 460.952L409.227 462.609C405.916 464.301 402.529 465.935 399.159 467.467ZM419.063 457.292L418.142 455.677C421.349 453.846 424.551 451.922 427.657 449.957L428.65 451.529C425.521 453.509 422.296 455.449 419.063 457.292ZM437.967 445.332L436.902 443.808C439.922 441.697 442.936 439.487 445.86 437.24L446.994 438.715C444.048 440.98 441.01 443.206 437.967 445.332ZM154.431 442.712C151.429 440.531 148.429 438.246 145.516 435.92L146.677 434.467C149.568 436.775 152.544 439.042 155.524 441.206L154.431 442.712ZM455.711 431.693L454.512 430.271C457.327 427.895 460.129 425.42 462.84 422.913L464.103 424.279C461.371 426.805 458.548 429.3 455.711 431.693ZM136.921 428.73C134.124 426.281 131.346 423.734 128.664 421.159L129.952 419.816C132.614 422.372 135.371 424.9 138.146 427.331L136.921 428.73ZM472.15 416.488L470.825 415.182C473.421 412.552 475.988 409.83 478.454 407.093L479.836 408.338C477.351 411.097 474.765 413.838 472.15 416.488ZM120.762 413.221C118.196 410.523 115.663 407.735 113.231 404.933L114.636 403.714C117.049 406.495 119.564 409.262 122.11 411.939L120.762 413.221ZM487.144 399.845L485.707 398.664C488.051 395.811 490.36 392.867 492.57 389.912L494.059 391.026C491.833 394.003 489.507 396.971 487.144 399.845ZM106.086 396.313C103.782 393.402 101.514 390.396 99.3431 387.38L100.853 386.293C103.007 389.286 105.258 392.269 107.545 395.16L106.086 396.313ZM500.565 381.898L499.026 380.854C501.101 377.799 503.133 374.655 505.065 371.507L506.651 372.481C504.703 375.652 502.655 378.821 500.565 381.898ZM93.0163 378.15C90.9893 375.043 89.0055 371.845 87.1193 368.644L88.7216 367.699C90.5938 370.876 92.5626 374.05 94.5742 377.133L93.0163 378.15ZM512.299 362.792L510.671 361.893C512.457 358.661 514.192 355.341 515.83 352.027L517.498 352.852C515.848 356.191 514.099 359.536 512.299 362.792H512.299ZM522.234 342.68L520.53 341.934C522.012 338.548 523.435 335.081 524.761 331.629L526.498 332.296C525.162 335.775 523.727 339.268 522.234 342.68H522.234ZM72.1292 338.666C70.703 335.243 69.3373 331.742 68.0702 328.257L69.8188 327.621C71.0759 331.079 72.4312 334.554 73.846 337.95L72.1292 338.666ZM530.278 321.722L528.512 321.137C529.673 317.639 530.769 314.063 531.768 310.509L533.559 311.012C532.552 314.594 531.447 318.198 530.278 321.722ZM64.4867 317.645C63.3799 314.1 62.3398 310.478 61.3956 306.879L63.1951 306.407C64.132 309.978 65.1644 313.573 66.2626 317.091L64.4867 317.645ZM536.341 300.162L534.529 299.741C535.362 296.155 536.123 292.494 536.793 288.859L538.622 289.195C537.948 292.859 537.181 296.548 536.341 300.162ZM58.805 295.982C58.0293 292.348 57.3271 288.647 56.7185 284.978L58.5534 284.673C59.1579 288.314 59.8546 291.988 60.6245 295.593L58.805 295.982ZM540.395 278.138L538.551 277.885C539.052 274.241 539.474 270.526 539.808 266.842L541.661 267.009C541.325 270.722 540.899 274.466 540.395 278.138ZM55.1388 273.89C54.7001 270.207 54.34 266.457 54.0679 262.742L55.9237 262.606C56.193 266.293 56.5509 270.015 56.9865 273.67L55.1388 273.89ZM542.418 255.836L540.56 255.752C540.725 252.066 540.81 248.327 540.81 244.64H542.67C542.67 248.355 542.585 252.122 542.418 255.836ZM53.5042 251.555C53.4407 249.274 53.4084 246.947 53.408 244.64C53.408 243.208 53.4202 241.779 53.4447 240.353L55.3051 240.386C55.2805 241.801 55.2683 243.219 55.2683 244.64C55.2687 246.93 55.301 249.24 55.3636 251.505L53.5042 251.555ZM55.7465 229.279L53.8898 229.163C54.1219 225.446 54.4426 221.692 54.8418 218.004L56.6912 218.204C56.2947 221.864 55.9773 225.59 55.7465 229.279H55.7465ZM539.608 217.93C539.237 214.262 538.726 212.474 538.186 208.822L540.027 208.55C540.57 212.23 541.036 215.039 541.411 218.734L539.608 217.93ZM58.1396 207.185L56.3011 206.9C56.8711 203.22 57.5332 199.511 58.2695 195.874L60.0926 196.243C59.3623 199.852 58.7051 203.533 58.1396 207.185H58.1396ZM536.309 197.868C535.599 194.239 534.799 190.586 533.929 187.011L535.736 186.571C536.613 190.174 537.42 193.855 538.134 197.511L536.309 197.868ZM62.546 185.402L60.7416 184.95C61.645 181.347 62.6455 177.714 63.7155 174.151L65.4968 174.686C64.4354 178.222 63.4426 181.827 62.546 185.402ZM531.051 176.274C530.014 172.732 528.88 169.169 527.682 165.682L529.441 165.077C530.649 168.59 531.791 172.182 532.837 175.751L531.051 176.274ZM68.9499 164.089L67.195 163.472C68.4313 159.955 69.7661 156.421 71.1622 152.969L72.8872 153.667C71.5015 157.092 70.1767 160.599 68.9499 164.089ZM523.827 155.257C522.47 151.833 521.017 148.397 519.507 145.044L521.204 144.28C522.725 147.659 524.189 151.121 525.557 154.571L523.827 155.257ZM77.2995 143.441L75.6091 142.664C77.1628 139.28 78.8165 135.887 80.5242 132.579L82.1774 133.432C80.4824 136.715 78.8415 140.082 77.2995 143.441ZM514.723 135.036C513.058 131.752 511.294 128.461 509.48 125.255L511.098 124.339C512.927 127.569 514.704 130.885 516.381 134.195L514.723 135.036ZM87.5099 123.66L85.8976 122.732C87.7534 119.509 89.7104 116.284 91.7147 113.145L93.2825 114.146C91.2937 117.261 89.3512 120.462 87.5099 123.66ZM503.793 115.721C501.828 112.592 499.769 109.474 497.675 106.454L499.203 105.394C501.313 108.437 503.388 111.578 505.368 114.732L503.793 115.721ZM99.4839 104.909L97.9633 103.837C100.108 100.795 102.35 97.7634 104.629 94.8257L106.099 95.9657C103.838 98.8817 101.612 101.89 99.4839 104.909ZM491.139 97.4746C488.897 94.5382 486.563 91.6191 484.198 88.7985L485.624 87.6036C488.006 90.4459 490.359 93.3868 492.618 96.3454L491.139 97.4746ZM113.114 87.3365L111.698 86.1302C114.104 83.3033 116.613 80.4895 119.153 77.7671L120.513 79.0361C117.992 81.7381 115.503 84.5309 113.114 87.3365ZM476.87 80.4455C474.371 77.7253 471.778 75.0292 469.166 72.433L470.478 71.1131C473.11 73.7298 475.721 76.4458 478.239 79.1864L476.87 80.4455ZM128.28 71.084L126.979 69.7542C129.639 67.1516 132.392 64.5786 135.16 62.1069L136.399 63.4949C133.652 65.9476 130.92 68.5011 128.28 71.0841V71.084ZM461.106 64.7776C458.367 62.2936 455.54 59.8437 452.702 57.4959L453.888 56.0625C456.747 58.428 459.596 60.8965 462.356 63.3996L461.106 64.7776ZM144.853 56.2832L143.679 54.8407C146.556 52.4976 149.53 50.1866 152.517 47.972L153.625 49.4662C150.66 51.6645 147.709 53.9578 144.853 56.2832H144.853ZM162.696 43.0585L161.658 41.5151C164.737 39.4431 167.907 37.4142 171.08 35.4834L172.047 37.0731C168.898 38.9889 165.752 41.0028 162.696 43.0585H162.696ZM181.66 31.5228L180.767 29.8905C184.024 28.1078 187.365 26.3782 190.695 24.749L191.512 26.4204C188.208 28.0369 184.893 29.7533 181.66 31.5228ZM406.171 27.2125C402.861 25.5634 399.47 23.97 396.093 22.4771L396.845 20.7757C400.249 22.28 403.666 23.8856 407.002 25.5475L406.171 27.2125ZM201.585 21.7763L200.846 20.0694C204.25 18.5937 207.733 17.1785 211.197 15.8627L211.857 17.6022C208.42 18.9076 204.964 20.312 201.585 21.7763ZM385.804 18.2095C382.36 16.8738 378.834 15.5992 375.325 14.422L375.918 12.6579C379.453 13.8447 383.006 15.1287 386.476 16.4754L385.804 18.2095ZM222.336 13.8965L221.756 12.1288C225.292 10.9697 228.899 9.87822 232.477 8.8858L232.974 10.6781C229.423 11.6632 225.844 12.746 222.336 13.8965H222.336ZM364.709 11.1304C361.161 10.1189 357.542 9.17694 353.953 8.33077L354.38 6.52037C357.997 7.37289 361.643 8.32215 365.219 9.34091L364.709 11.1304ZM243.75 7.95334L243.336 6.13975C246.96 5.31175 250.652 4.55733 254.308 3.89785L254.639 5.72825C251.01 6.38319 247.346 7.13171 243.75 7.95334ZM343.079 6.03074C339.456 5.35077 335.767 4.74583 332.111 4.23259L332.369 2.39037C336.053 2.9077 339.772 3.51723 343.422 4.20216L343.079 6.03074ZM265.62 4.0064L265.374 2.16237C269.056 1.67093 272.801 1.25761 276.505 0.935136L276.666 2.78825C272.991 3.1089 269.275 3.51855 265.62 4.0064ZM321.072 2.93904C317.408 2.59385 313.678 2.32769 309.986 2.1492L310.076 0.290635C313.796 0.470952 317.554 0.738924 321.247 1.08688L321.072 2.93904ZM287.759 2.07471L287.681 0.216189C291.1 0.0735727 294.584 0.000911586 298.039 0L298.881 0.00135549L298.876 1.86173L298.039 1.86038C294.611 1.86124 291.152 1.93345 287.759 2.07471Z" fill="#3F3D56"/>
<path d="M839 606.756H157.196V608.616H839V606.756Z" fill="#3F3D56"/>
<path d="M556.243 293.963L565.544 438.143C565.544 438.143 587.868 494.884 586.938 548.835C586.938 548.835 578.567 570.23 585.078 573.95C591.589 577.671 595.309 580.462 591.589 583.252C587.868 586.043 585.078 592.554 587.868 594.415C590.659 596.275 591.589 599.066 590.659 599.066H562.754C562.754 599.066 568.335 585.113 559.964 581.392C551.592 577.671 556.243 568.369 556.243 568.369L493.922 386.052L444.624 553.486C444.624 553.486 452.996 559.067 446.484 561.858C439.973 564.649 437.183 559.067 439.973 564.649C442.764 570.23 439.043 573.02 439.043 573.95C439.043 574.881 411.139 571.16 411.139 571.16C411.139 571.16 425.091 559.067 418.58 556.277C412.069 553.486 409.278 550.696 411.139 548.835C412.999 546.975 420.44 529.301 420.44 529.301C420.44 529.301 424.161 462.328 425.091 459.537C426.021 456.747 425.091 443.724 425.091 437.213C425.091 430.701 424.161 404.656 426.951 398.145C429.742 391.633 432.532 311.637 447.415 302.335C462.297 293.033 556.243 293.963 556.243 293.963Z" fill="#2F2E41"/>
<path d="M438.113 569.3C438.113 569.3 456.716 607.437 443.694 612.088C430.672 616.739 413.929 613.019 410.208 618.6C406.488 624.181 365.561 630.692 364.631 616.739C363.701 602.786 409.278 576.741 409.278 576.741L415.215 567.181L438.113 569.3Z" fill="#2F2E41"/>
<path d="M588.798 597.205C588.798 597.205 607.401 635.343 594.379 639.994C581.357 644.645 564.614 640.924 560.894 646.505C557.173 652.086 516.246 658.598 515.316 644.645C514.386 630.692 559.963 604.647 559.963 604.647L565.901 595.086L588.798 597.205Z" fill="#2F2E41"/>
<path d="M502.759 118.622C519.711 118.622 533.454 104.879 533.454 87.9262C533.454 70.9732 519.711 57.23 502.759 57.23C485.806 57.23 472.064 70.9732 472.064 87.9262C472.064 104.879 485.806 118.622 502.759 118.622Z" fill="#A0616A"/>
<path d="M523.688 104.205L519.967 131.18L492.063 152.574L484.621 142.342V106.995L523.688 104.205Z" fill="#A0616A"/>
<path d="M479.97 138.622C479.97 138.622 508.805 141.412 523.688 131.18L553.453 306.986C553.453 306.986 448.345 315.358 443.694 309.777V254.895L462.297 165.597L479.97 138.622Z" fill="#3F3D56"/>
<path d="M521.126 122.775L531.129 131.18C531.129 131.18 572.055 137.692 569.265 148.854L558.103 280.941L561.824 325.59C561.824 325.59 530.198 317.218 506.014 325.59C481.83 333.962 501.044 145.688 501.044 145.688C501.044 145.688 523.216 125.532 521.126 122.775Z" fill="#D0CDE1"/>
<path d="M484.621 132.956C484.621 132.956 454.856 154.435 451.135 168.388C447.415 182.341 435.323 329.311 435.323 329.311C435.323 329.311 440.904 326.52 443.694 331.171C446.485 335.822 489.272 140.314 484.621 132.956Z" fill="#D0CDE1"/>
<path d="M472.079 86.5888C472.079 86.5888 468.756 81.6042 470.034 76.2362C470.797 73.1885 471.099 70.0434 470.928 66.9061C470.928 66.9061 473.612 58.215 476.296 53.3582C478.98 48.5014 477.702 46.4565 486.137 44.9227C494.573 43.389 491.122 32.3974 513.36 44.2837C514.11 45.3313 515.154 46.1331 516.359 46.5881C517.565 47.043 518.878 47.1306 520.134 46.8399C524.735 45.9452 526.396 52.3357 526.396 52.3357C526.396 52.3357 529.463 50.5464 530.614 53.1026C531.764 55.6588 539.965 51.5684 539.965 68.8228C539.965 86.0772 530.632 101.49 530.632 101.49C530.632 101.49 531.317 72.4658 516.108 69.5262C500.899 66.5866 484.54 58.0233 480.578 69.0149C478.439 75.184 475.587 81.082 472.079 86.5888Z" fill="#2F2E41"/>
<path d="M530.965 93.4898C532.622 93.4898 533.965 91.6989 533.965 89.4898C533.965 87.2806 532.622 85.4897 530.965 85.4897C529.309 85.4897 527.966 87.2806 527.966 89.4898C527.966 91.6989 529.309 93.4898 530.965 93.4898Z" fill="#A0616A"/>
<path d="M404.897 377.145C397.537 372.719 388.663 373.057 385.289 373.395C386.574 376.532 390.429 384.533 397.789 388.962C405.167 393.399 414.03 393.051 417.398 392.715C416.114 389.579 412.259 381.575 404.897 377.145Z" fill="#D0CDE1"/>
<path d="M439.483 464.977H393.482C390.737 464.977 388.104 466.068 386.163 468.009C384.222 469.95 383.131 472.583 383.131 475.328C383.131 478.073 384.222 480.706 386.163 482.647C388.104 484.588 390.737 485.679 393.482 485.679H439.483C442.227 485.676 444.857 484.585 446.796 482.644C448.735 480.703 449.824 478.072 449.824 475.328C449.824 472.585 448.735 469.953 446.796 468.012C444.857 466.072 442.227 464.98 439.483 464.977Z" fill="#D0CDE1"/>
<path d="M647.795 355.719H389.878C386.877 355.719 383.906 356.31 381.135 357.458C378.363 358.606 375.844 360.289 373.722 362.411C371.601 364.533 369.918 367.051 368.77 369.823C367.622 372.595 367.031 375.566 367.031 378.567V504.234C367.031 510.294 369.438 516.105 373.722 520.39C378.007 524.675 383.818 527.082 389.878 527.082H647.795C650.796 527.082 653.766 526.491 656.538 525.343C659.31 524.194 661.829 522.511 663.95 520.39C666.072 518.268 667.755 515.749 668.903 512.977C670.051 510.205 670.642 507.234 670.642 504.234V378.567C670.642 375.566 670.051 372.595 668.903 369.823C667.755 367.051 666.072 364.533 663.95 362.411C661.829 360.289 659.31 358.606 656.538 357.458C653.766 356.31 650.796 355.719 647.795 355.719ZM383.496 371.305C384.006 371.213 396.083 369.157 406.083 375.175C416.083 381.192 419.925 392.826 420.084 393.318L420.488 394.573L419.19 394.803C417.339 395.092 415.467 395.229 413.593 395.214C409.052 395.214 402.47 394.462 396.603 390.931C386.603 384.916 382.761 373.281 382.603 372.789L382.199 371.535L383.496 371.305ZM439.483 487.979H393.482C390.127 487.979 386.909 486.646 384.537 484.273C382.164 481.901 380.831 478.683 380.831 475.328C380.831 471.973 382.164 468.755 384.537 466.382C386.909 464.01 390.127 462.677 393.482 462.677H439.483C442.839 462.677 446.056 464.01 448.429 466.382C450.801 468.755 452.134 471.973 452.134 475.328C452.134 478.683 450.801 481.901 448.429 484.273C446.056 486.646 442.839 487.979 439.483 487.979ZM648.791 485.679C648.781 489.336 647.323 492.84 644.737 495.426C642.152 498.012 638.648 499.469 634.991 499.48H600.49C596.833 499.469 593.329 498.011 590.743 495.426C588.157 492.84 586.7 489.336 586.689 485.679V464.977C586.7 461.32 588.157 457.816 590.743 455.23C593.329 452.644 596.833 451.187 600.49 451.176H634.991C638.648 451.187 642.152 452.644 644.737 455.23C647.323 457.816 648.781 461.32 648.791 464.977L648.791 485.679Z" fill="#D0CDE1"/>
<path d="M611.415 481.653H596.465C595.397 481.653 594.373 482.077 593.618 482.832C592.864 483.587 592.439 484.611 592.439 485.679C592.439 486.746 592.864 487.77 593.618 488.525C594.373 489.28 595.397 489.704 596.465 489.704H611.415C612.483 489.704 613.506 489.28 614.261 488.525C615.016 487.77 615.44 486.746 615.44 485.679C615.44 484.611 615.016 483.587 614.261 482.832C613.506 482.077 612.483 481.653 611.415 481.653ZM611.415 487.404H596.465C596.238 487.404 596.013 487.36 595.803 487.274C595.593 487.187 595.403 487.06 595.242 486.9C595.082 486.74 594.954 486.549 594.867 486.34C594.78 486.13 594.735 485.906 594.735 485.679C594.735 485.452 594.78 485.227 594.867 485.018C594.954 484.808 595.082 484.618 595.242 484.457C595.403 484.297 595.593 484.17 595.803 484.084C596.013 483.997 596.238 483.953 596.465 483.954H611.415C611.642 483.953 611.867 483.997 612.076 484.084C612.286 484.17 612.477 484.297 612.638 484.457C612.798 484.618 612.926 484.808 613.013 485.018C613.099 485.227 613.144 485.452 613.144 485.679C613.144 485.906 613.099 486.13 613.013 486.34C612.926 486.549 612.798 486.74 612.638 486.9C612.477 487.06 612.286 487.187 612.076 487.274C611.867 487.36 611.642 487.404 611.415 487.404Z" fill="#D0CDE1"/>
<path d="M639.016 481.653H624.065C623.536 481.653 623.012 481.756 622.523 481.958C622.034 482.16 621.59 482.456 621.215 482.83C620.841 483.204 620.544 483.648 620.341 484.137C620.139 484.626 620.034 485.15 620.034 485.679C620.034 486.208 620.139 486.732 620.341 487.221C620.544 487.709 620.841 488.153 621.215 488.527C621.59 488.901 622.034 489.197 622.523 489.399C623.012 489.601 623.536 489.705 624.065 489.704H639.016C640.083 489.704 641.107 489.28 641.862 488.525C642.617 487.77 643.041 486.746 643.041 485.679C643.041 484.611 642.617 483.587 641.862 482.832C641.107 482.077 640.083 481.653 639.016 481.653ZM639.016 487.404H624.065C623.839 487.404 623.614 487.36 623.404 487.274C623.194 487.187 623.004 487.06 622.843 486.9C622.682 486.74 622.555 486.549 622.468 486.34C622.381 486.13 622.336 485.906 622.336 485.679C622.336 485.452 622.381 485.227 622.468 485.018C622.555 484.808 622.682 484.618 622.843 484.457C623.004 484.297 623.194 484.17 623.404 484.084C623.614 483.997 623.839 483.953 624.065 483.954H639.016C639.473 483.955 639.911 484.137 640.233 484.46C640.556 484.784 640.737 485.222 640.737 485.679C640.737 486.136 640.556 486.574 640.233 486.897C639.911 487.221 639.473 487.403 639.016 487.404Z" fill="#D0CDE1"/>
<path d="M611.415 471.303H596.465C595.397 471.303 594.373 471.727 593.618 472.482C592.864 473.237 592.439 474.26 592.439 475.328C592.439 476.396 592.864 477.419 593.618 478.174C594.373 478.929 595.397 479.353 596.465 479.353H611.415C611.944 479.354 612.468 479.251 612.957 479.049C613.446 478.847 613.891 478.55 614.265 478.176C614.64 477.803 614.937 477.359 615.139 476.87C615.342 476.381 615.446 475.857 615.446 475.328C615.446 474.799 615.342 474.275 615.139 473.786C614.937 473.297 614.64 472.853 614.265 472.48C613.891 472.106 613.446 471.809 612.957 471.607C612.468 471.405 611.944 471.302 611.415 471.303ZM611.415 477.053H596.465C596.007 477.053 595.568 476.871 595.245 476.548C594.921 476.224 594.74 475.786 594.74 475.328C594.74 474.87 594.921 474.432 595.245 474.108C595.568 473.785 596.007 473.603 596.465 473.603H611.415C611.873 473.603 612.311 473.785 612.635 474.108C612.958 474.432 613.14 474.87 613.14 475.328C613.14 475.786 612.958 476.224 612.635 476.548C612.311 476.871 611.873 477.053 611.415 477.053Z" fill="#D0CDE1"/>
<path d="M639.016 471.303H624.065C623.536 471.302 623.012 471.405 622.523 471.607C622.034 471.809 621.59 472.106 621.215 472.48C620.841 472.853 620.544 473.297 620.341 473.786C620.139 474.275 620.034 474.799 620.034 475.328C620.034 475.857 620.139 476.381 620.341 476.87C620.544 477.359 620.841 477.803 621.215 478.176C621.59 478.55 622.034 478.847 622.523 479.049C623.012 479.251 623.536 479.354 624.065 479.353H639.016C640.083 479.353 641.107 478.929 641.862 478.174C642.617 477.419 643.041 476.396 643.041 475.328C643.041 474.26 642.617 473.237 641.862 472.482C641.107 471.727 640.083 471.303 639.016 471.303ZM639.016 477.053H624.065C623.608 477.053 623.169 476.871 622.846 476.548C622.522 476.224 622.34 475.786 622.34 475.328C622.34 474.87 622.522 474.432 622.846 474.108C623.169 473.785 623.608 473.603 624.065 473.603H639.016C639.473 473.603 639.912 473.785 640.236 474.108C640.559 474.432 640.741 474.87 640.741 475.328C640.741 475.786 640.559 476.224 640.236 476.548C639.912 476.871 639.473 477.053 639.016 477.053Z" fill="#D0CDE1"/>
<path d="M611.415 460.952H596.465C595.397 460.952 594.373 461.376 593.618 462.131C592.864 462.886 592.439 463.91 592.439 464.977C592.439 466.045 592.864 467.069 593.618 467.824C594.373 468.578 595.397 469.003 596.465 469.003H611.415C612.483 469.003 613.506 468.578 614.261 467.824C615.016 467.069 615.44 466.045 615.44 464.977C615.44 463.91 615.016 462.886 614.261 462.131C613.506 461.376 612.483 460.952 611.415 460.952ZM611.415 466.702H596.465C596.007 466.702 595.568 466.521 595.245 466.197C594.921 465.874 594.74 465.435 594.74 464.977C594.74 464.52 594.921 464.081 595.245 463.757C595.568 463.434 596.007 463.252 596.465 463.252H611.415C611.873 463.252 612.311 463.434 612.635 463.757C612.958 464.081 613.14 464.52 613.14 464.977C613.14 465.435 612.958 465.874 612.635 466.197C612.311 466.521 611.873 466.702 611.415 466.702Z" fill="#D0CDE1"/>
<path d="M639.016 460.952H624.065C623.536 460.951 623.012 461.055 622.523 461.257C622.034 461.458 621.59 461.755 621.215 462.129C620.841 462.503 620.544 462.947 620.341 463.435C620.139 463.924 620.034 464.448 620.034 464.977C620.034 465.506 620.139 466.03 620.341 466.519C620.544 467.008 620.841 467.452 621.215 467.826C621.59 468.2 622.034 468.496 622.523 468.698C623.012 468.9 623.536 469.003 624.065 469.003H639.016C640.082 469.001 641.105 468.576 641.858 467.821C642.612 467.067 643.035 466.044 643.035 464.977C643.035 463.911 642.612 462.888 641.858 462.133C641.105 461.378 640.082 460.954 639.016 460.952ZM639.016 466.702H624.065C623.608 466.702 623.169 466.521 622.846 466.197C622.522 465.874 622.34 465.435 622.34 464.977C622.34 464.52 622.522 464.081 622.846 463.757C623.169 463.434 623.608 463.252 624.065 463.252H639.016C639.473 463.252 639.912 463.434 640.236 463.757C640.559 464.081 640.741 464.52 640.741 464.977C640.741 465.435 640.559 465.874 640.236 466.197C639.912 466.521 639.473 466.702 639.016 466.702Z" fill="#D0CDE1"/>
<path d="M566.475 327.45L559.807 349.209C559.807 349.209 558.103 389.773 535.78 384.192C513.456 378.611 542.291 331.171 542.291 331.171L548.802 320.939L566.475 327.45Z" fill="#A0616A"/>
<path d="M439.973 327.45L433.306 349.209C433.306 349.209 431.602 389.773 409.278 384.192C386.955 378.611 415.789 331.171 415.789 331.171L422.3 320.939L439.973 327.45Z" fill="#A0616A"/>
<path d="M561.824 142.342C561.824 142.342 576.706 138.622 581.357 163.737C586.008 188.852 591.589 260.476 591.589 260.476L569.265 335.822C569.265 335.822 546.941 323.729 542.291 325.59L559.858 260.178L545.081 193.503C545.081 193.503 558.103 142.342 561.824 142.342Z" fill="#D0CDE1"/>
<path opacity="0.15" d="M540.185 194.775L559.718 259.888L540.185 325.932L551.347 259.888L540.185 194.775Z" fill="black"/>
<path d="M451.135 193.503L417.65 325.59C417.65 325.59 435.313 331.42 441.824 336.071L451.135 193.503Z" fill="#D0CDE1"/>
<path d="M99.8635 525.45C151.235 525.45 192.879 483.804 192.879 432.431C192.879 381.058 151.235 339.412 99.8635 339.412C48.4924 339.412 6.8479 381.058 6.8479 432.431C6.8479 483.804 48.4924 525.45 99.8635 525.45Z" fill="#3F3D56"/>
<path opacity="0.1" d="M99.8635 512.427C144.043 512.427 179.857 476.611 179.857 432.431C179.857 388.25 144.043 352.434 99.8635 352.434C55.6844 352.434 19.8701 388.25 19.8701 432.431C19.8701 476.611 55.6844 512.427 99.8635 512.427Z" fill="black"/>
<path d="M96.0305 479.636V467.993C90.145 467.878 84.0565 465.802 80.5051 462.92L82.9403 455.197C87.1607 458.359 92.2788 460.096 97.5525 460.153C104.757 460.153 109.628 455.427 109.628 448.856C109.628 442.515 105.67 438.596 98.1614 435.137C87.811 430.527 81.4183 425.223 81.4183 415.194C81.4183 405.626 87.4053 398.363 96.741 396.634V384.991H103.032V396.173C107.723 396.237 112.299 397.637 116.224 400.208L113.687 407.816C109.923 405.24 105.462 403.872 100.901 403.897C93.088 403.897 90.145 409.199 90.145 413.811C90.145 419.805 93.8996 422.803 102.728 426.953C113.179 431.795 118.456 437.789 118.456 448.049C118.456 457.156 112.875 465.687 102.423 467.646V479.636H96.0305Z" fill="#7F3997"/>
<path d="M198.123 621.639C132.445 631.434 65.6779 631.434 0 621.639V599.314C65.7476 608.119 132.376 608.119 198.123 599.314V621.639Z" fill="#3F3D56"/>
<path d="M198.123 587.222C132.445 597.017 65.6779 597.017 0 587.222V564.897C65.7476 573.702 132.376 573.702 198.123 564.897V587.222Z" fill="#3F3D56"/>
<path d="M198.123 552.805C132.445 562.6 65.6779 562.6 0 552.805V530.48C65.7476 539.285 132.376 539.285 198.123 530.48V552.805Z" fill="#3F3D56"/>
</g>
<defs>
<clipPath id="clip0">
<rect width="839" height="653" fill="white"/>
</clipPath>
</defs>
</svg>
