<svg width="81" height="81" viewBox="0 0 81 81" fill="none" xmlns="http://www.w3.org/2000/svg">
<path d="M40.5 5.0625C33.4911 5.0625 26.6397 7.14087 20.812 11.0348C14.9843 14.9287 10.4422 20.4633 7.76003 26.9387C5.07785 33.414 4.37607 40.5393 5.74344 47.4135C7.1108 54.2877 10.4859 60.6021 15.4419 65.5581C20.3979 70.5141 26.7123 73.8892 33.5865 75.2566C40.4607 76.6239 47.586 75.9222 54.0614 73.24C60.5367 70.5578 66.0713 66.0157 69.9652 60.188C73.8591 54.3604 75.9375 47.5089 75.9375 40.5C75.9375 31.1014 72.2039 22.0877 65.5581 15.4419C58.9123 8.79608 49.8986 5.0625 40.5 5.0625V5.0625ZM40.5 70.875C34.4924 70.875 28.6197 69.0935 23.6246 65.7559C18.6294 62.4182 14.7362 57.6743 12.4372 52.124C10.1382 46.5737 9.53664 40.4663 10.7087 34.5741C11.8807 28.682 14.7736 23.2697 19.0216 19.0216C23.2697 14.7736 28.682 11.8807 34.5741 10.7086C40.4663 9.53662 46.5737 10.1381 52.124 12.4372C57.6743 14.7362 62.4183 18.6294 65.7559 23.6246C69.0935 28.6197 70.875 34.4924 70.875 40.5C70.875 48.556 67.6748 56.282 61.9784 61.9784C56.282 67.6748 48.556 70.875 40.5 70.875Z" fill="#C73F3F"/>
<path d="M37.9688 20.25H43.0312V48.0938H37.9688V20.25Z" fill="#C73F3F"/>
<path d="M40.5 55.6875C39.7491 55.6875 39.015 55.9102 38.3906 56.3274C37.7662 56.7446 37.2795 57.3376 36.9921 58.0314C36.7048 58.7252 36.6296 59.4886 36.7761 60.2251C36.9226 60.9616 37.2842 61.6382 37.8152 62.1692C38.3462 62.7002 39.0227 63.0618 39.7593 63.2083C40.4958 63.3548 41.2592 63.2796 41.953 62.9922C42.6468 62.7049 43.2398 62.2182 43.657 61.5938C44.0742 60.9694 44.2969 60.2353 44.2969 59.4844C44.2969 58.4774 43.8969 57.5116 43.1848 56.7996C42.4727 56.0875 41.507 55.6875 40.5 55.6875Z" fill="#C73F3F"/>
</svg>
